<svg
    xmlns="http://www.w3.org/2000/svg"
    xmlns:xlink="http://www.w3.org/1999/xlink"
    width="48px" height="48px"
    viewBox="0 0 48 48"
    version="1.1"
>
    <path d="M43 26C46.6873 32.8916 32.9733 52.6875 13 42.0001C30.6835 38.4956 39.4998 24.6832 43 26Z" fill="#fff" />
    <path d="M1.23963 34.1151C-0.0129749 36.8361 -0.216302 39.1423 0.870996 40.6951C4.03877 45.2191 16.962 41.6358 29.7358 32.6915C42.5096 23.7472 50.2968 12.8289 47.129 8.3049C46.0262 6.73002 43.7413 6.13761 40.6921 6.41181C41.9273 6.55914 42.8519 7.00028 43.3845 7.76094C45.9187 11.3802 38.621 20.8625 27.0847 28.9404C15.5484 37.0182 4.14194 40.6326 1.60772 37.0133C1.08882 36.2723 0.98213 35.2854 1.23963 34.1151Z" fill="#fff" />
    <path d="M3 24.0001C3 13.1521 12.4021 3.00002 24.0003 3.00002C35.5984 3.00002 43.4378 12.2459 35.0003 24.0001C13.8218 48.9284 3.26361 38.549 3 24.0001Z" fill="#fff" />
</svg>