<svg xmlns="http://www.w3.org/2000/svg" viewBox="0 0 1280 1280">
  <path d="M448.4 273.3c-1-1.3-.7-3 .5-4 1.3-1 3.1-.7 4 .6 1 1.3.8 3-.5 4s-3.1.7-4-.6m164.3 74.1c0-1.5 1.4-2.7 3-2.6 1.5 0 2.7 1.4 2.6 3a2.8 2.8 0 1 1-5.6-.4m-12.8-5.2a2.8 2.8 0 1 1 5.6.3 2.8 2.8 0 0 1-5.6-.3m-13-5.4c0-1.5 1.4-2.7 3-2.6 1.5 0 2.7 1.3 2.6 2.9a2.8 2.8 0 1 1-5.6-.3m-12.5-5.1a2.8 2.8 0 1 1 5.6.3 2.8 2.8 0 1 1-5.6-.3m-12.4-5.1a2.8 2.8 0 1 1 5.7.2 2.8 2.8 0 0 1-5.7-.2m-128.2 72.5a2.8 2.8 0 1 1-2.6-5 2.8 2.8 0 0 1 2.6 5m1.9 13.9a2.8 2.8 0 0 1-2.6-5 2.8 2.8 0 0 1 2.6 5m-11-85.3c-1.3.7-3 .2-3.7-1.2-.8-1.3-.2-3 1.2-3.7 1.3-.8 3-.2 3.7 1.2.8 1.3.2 3-1.2 3.7m1.9 13.7c-1.4.8-3 .2-3.8-1.2-.7-1.3-.1-3 1.2-3.8a3 3 0 0 1 3.8 1.3c.7 1.3.2 3-1.2 3.7m1.9 14a2.8 2.8 0 0 1-2.6-5 2.8 2.8 0 0 1 2.6 5m1.8 13.4a3 3 0 0 1-3.8-1.3c-.7-1.3-.1-3 1.3-3.7 1.3-.8 3-.2 3.7 1.2.8 1.3.2 3-1.2 3.8m1.8 13.2a2.8 2.8 0 1 1-2.5-5 2.8 2.8 0 0 1 2.5 5" style="fill:#fff;fill-opacity:.25"/>
  <path d="M480.8 247.4a2.8 2.8 0 0 1-.2-5.7 3 3 0 0 1 3 2.7 3 3 0 0 1-2.8 3m-4.2 13.4a2.8 2.8 0 0 1-3-2.7 3 3 0 0 1 2.8-3 3 3 0 0 1 2.9 2.8 3 3 0 0 1-2.7 2.9m197.9-96.4c1.2 1 1.2 2.9.1 4a2.9 2.9 0 0 1-4.2-4 3 3 0 0 1 4.1 0m12.7-6.4c1.2 1.1 1.2 3 .1 4a2.9 2.9 0 0 1-4 .2 2.9 2.9 0 0 1 4-4.2m12.8-6.4a2.9 2.9 0 1 1-4 0 3 3 0 0 1 4 0m12.4-6.2a2.9 2.9 0 1 1-4 0 3 3 0 0 1 4 0m12.3-6.1c1.1 1 1.2 2.9 0 4a3 3 0 0 1-4 .1 2.9 2.9 0 0 1-.1-4c1.1-1.2 3-1.2 4-.1m12.8-6.3a2.9 2.9 0 1 1-4 0 3 3 0 0 1 4 0m13.8-7c1.1 1.2 1.2 3 0 4.1a2.9 2.9 0 1 1 0-4m13.3-5.5c1.1 1.2 1.2 3 0 4.1a2.9 2.9 0 0 1-4 .1c-1.2-1-1.2-3-.1-4 1.1-1.2 3-1.2 4-.2m12.8-6.3c1.1 1.1 1.2 3 0 4.1a3 3 0 0 1-4 0 2.9 2.9 0 0 1-.1-4c1.1-1.2 3-1.2 4 0m13.8-7c1.2 1.1 1.2 3 .1 4a2.9 2.9 0 0 1-4 .2 2.9 2.9 0 0 1 4-4.2" style="fill:#fff;fill-opacity:.25"/>
  <path d="M593.4 192.8c-1-1.2-.7-3 .5-4a2.8 2.8 0 1 1-.5 4m-13.3 4.2c-.9-1.4-.6-3 .6-4s3-.7 4 .5a3 3 0 0 1-.6 4c-1.3.9-3 .7-4-.6m-13.4 4.1c-1-1.2-.7-3 .6-3.8 1.2-1 3-.7 3.9.5 1 1.3.7 3-.6 4-1.2.9-3 .6-3.9-.6m-12.9 3.9c-.9-1.2-.6-3 .6-3.8 1.2-1 3-.7 4 .5a3 3 0 0 1-.6 4 3 3 0 0 1-4-.6M541 209c-.9-1.2-.6-3 .6-3.9 1.3-.9 3-.7 4 .6.9 1.2.6 3-.6 4-1.2.9-3 .6-4-.6m-13.2 4.1a3 3 0 0 1 .6-4 2.8 2.8 0 0 1 3.4 4.6 3 3 0 0 1-4-.6m-14.8 4.4c-1-1.2-.7-3 .5-3.9 1.2-1 3-.7 4 .5a3 3 0 0 1-.6 4c-1.3 1-3 .7-4-.6M620.5 186c-1-1.2-.7-3 .5-3.8 1.3-1 3-.7 4 .5a3 3 0 0 1-.6 4 3 3 0 0 1-4-.6m-14.6 2.7c-.9-1.3-.6-3 .6-4s3-.6 4 .6c.9 1.2.6 3-.6 4a3 3 0 0 1-4-.6M531.2 291c1-1.3 2.7-1.6 4-.7 1.3 1 1.6 2.7.7 4a2.9 2.9 0 0 1-4 .7 2.9 2.9 0 0 1-.7-4m-8.7-12.7a2.9 2.9 0 1 1 4.6 3.3 2.9 2.9 0 0 1-4 .7 2.9 2.9 0 0 1-.6-4m-8.9-12.9c1-1.2 2.8-1.5 4-.6a3 3 0 0 1 .7 4 2.9 2.9 0 0 1-4 .7 2.9 2.9 0 0 1-.7-4m-8.3-12.1c1-1.3 2.8-1.6 4-.6 1.4.9 1.6 2.7.7 4a2.9 2.9 0 0 1-4 .6 2.9 2.9 0 0 1-.7-4m-8.2-12a3 3 0 0 1 4-.6 3 3 0 0 1 .7 4 2.9 2.9 0 0 1-4.7-3.4m45.9 331c1.3-1 3-.6 4 .6.9 1.4.6 3.1-.7 4-1.3 1-3.1.7-4-.6-1-1.3-.6-3.2.7-4m-4.2-14.9a2.9 2.9 0 1 1 3.3 4.7c-1.2 1-3 .6-4-.7a3 3 0 0 1 .7-4m-4.1-15c1.3-.9 3-.6 4 .7a3 3 0 0 1-.7 4c-1.3 1-3.1.6-4-.7-1-1.3-.6-3 .7-4M493 471.8c.4-1.5 2-2.3 3.5-1.8 1.5.4 2.3 2 1.9 3.4a3 3 0 0 1-3.5 2c-1.5-.5-2.4-2-1.9-3.6m-10.8-8c.4-1.5 2-2.3 3.5-1.9 1.5.5 2.3 2 1.9 3.5-.5 1.5-2 2.4-3.6 1.9-1.4-.5-2.3-2-1.8-3.5m-10.8-8c.5-1.5 2-2.3 3.5-1.8 1.5.4 2.4 2 2 3.4a3 3 0 0 1-3.6 2 3 3 0 0 1-1.9-3.6m-11.1-8.2c.5-1.5 2-2.4 3.5-1.9s2.3 2 1.9 3.5c-.5 1.5-2 2.3-3.5 1.9-1.5-.5-2.3-2-1.9-3.5" style="fill:#fff;fill-opacity:.25"/>
  <g style="fill:#7fa7ca;">
    <path d="m-71 118 .7 1.8 1.8.7-1.8.7-.7 1.8-.7-1.8-1.8-.7 1.8-.7z" style="opacity:.2" transform="matrix(6.4 0 0 6.4 945.3 -547.6)"/>
    <path d="M-69.7 120.5a1.3 1.3 0 1 1-2.6 0 1.3 1.3 0 0 1 2.6 0z" style="opacity:.3" transform="matrix(6.4 0 0 6.4 945.3 -547.6)"/>
    <path d="M-72 120.5a1 1 0 1 0 2 0 1 1 0 0 0-2 0z" transform="matrix(6.4 0 0 6.4 945.3 -547.6)"/>
    <path d="m-71 118 .7 1.8 1.8.7-1.8.7-.7 1.8-.7-1.8-1.8-.7 1.8-.7z" style="opacity:.2" transform="matrix(6.4 0 0 6.4 1264.6 -672.7)"/>
    <path d="M-69.7 120.5a1.3 1.3 0 1 1-2.6 0 1.3 1.3 0 0 1 2.6 0z" style="opacity:.3" transform="matrix(6.4 0 0 6.4 1264.6 -672.7)"/>
    <path d="M-72 120.5a1 1 0 1 0 2 0 1 1 0 0 0-2 0z" transform="matrix(6.4 0 0 6.4 1264.6 -672.7)"/>
    <path d="m-71 118 .7 1.8 1.8.7-1.8.7-.7 1.8-.7-1.8-1.8-.7 1.8-.7z" style="opacity:.2" transform="rotate(24.3 2390.4 3873.9) scale(10.0987)"/>
    <path d="M-69.7 120.5a1.3 1.3 0 1 1-2.6 0 1.3 1.3 0 0 1 2.6 0z" style="opacity:.3" transform="rotate(24.3 2390.4 3873.9) scale(10.0987)"/>
    <path d="M-72 120.5a1 1 0 1 0 2 0 1 1 0 0 0-2 0z" transform="rotate(24.3 2390.4 3873.9) scale(10.0987)"/>
    <path d="m-71 118 .7 1.8 1.8.7-1.8.7-.7 1.8-.7-1.8-1.8-.7 1.8-.7z" style="opacity:.2" transform="matrix(2.932 4 -4 2.932 1157.8 203.4)"/>
    <path d="M-69.7 120.5a1.3 1.3 0 1 1-2.6 0 1.3 1.3 0 0 1 2.6 0z" style="opacity:.3" transform="matrix(2.932 4 -4 2.932 1157.8 203.4)"/>
    <path d="M-72 120.5a1 1 0 1 0 2 0 1 1 0 0 0-2 0z" transform="matrix(2.932 4 -4 2.932 1157.8 203.4)"/>
    <path d="m-71 118 .7 1.8 1.8.7-1.8.7-.7 1.8-.7-1.8-1.8-.7 1.8-.7z" style="opacity:.2" transform="rotate(14.2 1432.7 3697.7) scale(5.2)"/>
    <path d="M-69.7 120.5a1.3 1.3 0 1 1-2.6 0 1.3 1.3 0 0 1 2.6 0z" style="opacity:.3" transform="rotate(14.2 1432.7 3697.7) scale(5.2)"/>
    <path d="M-72 120.5a1 1 0 1 0 2 0 1 1 0 0 0-2 0z" transform="rotate(14.2 1432.7 3697.7) scale(5.2)"/>
    <path d="m-71 118 .7 1.8 1.8.7-1.8.7-.7 1.8-.7-1.8-1.8-.7 1.8-.7z" style="opacity:.2" transform="rotate(5.8 4676.2 9209.9) scale(6.4)"/>
    <path d="M-69.7 120.5a1.3 1.3 0 1 1-2.6 0 1.3 1.3 0 0 1 2.6 0z" style="opacity:.3" transform="rotate(5.8 4676.2 9209.9) scale(6.4)"/>
    <path d="M-72 120.5a1 1 0 1 0 2 0 1 1 0 0 0-2 0z" transform="rotate(5.8 4676.2 9209.9) scale(6.4)"/>
    <path d="m-71 118 .7 1.8 1.8.7-1.8.7-.7 1.8-.7-1.8-1.8-.7 1.8-.7z" style="opacity:.2" transform="matrix(7.2 0 0 7.2 1059.3 -557.9)"/>
    <path d="M-69.7 120.5a1.3 1.3 0 1 1-2.6 0 1.3 1.3 0 0 1 2.6 0z" style="opacity:.3" transform="matrix(7.2 0 0 7.2 1059.3 -557.9)"/>
    <path d="M-72 120.5a1 1 0 1 0 2 0 1 1 0 0 0-2 0z" transform="matrix(7.2 0 0 7.2 1059.3 -557.9)"/>
    <path d="m-71 118 .7 1.8 1.8.7-1.8.7-.7 1.8-.7-1.8-1.8-.7 1.8-.7z" style="opacity:.2" transform="matrix(7 -2.72 2.72 7 803.5 -682.6)"/>
    <path d="M-69.7 120.5a1.3 1.3 0 1 1-2.6 0 1.3 1.3 0 0 1 2.6 0z" style="opacity:.3" transform="matrix(7 -2.72 2.72 7 803.5 -682.6)"/>
    <path d="M-72 120.5a1 1 0 1 0 2 0 1 1 0 0 0-2 0z" transform="matrix(7 -2.72 2.72 7 803.5 -682.6)"/>
    <path d="m-71 118 .7 1.8 1.8.7-1.8.7-.7 1.8-.7-1.8-1.8-.7 1.8-.7z" style="opacity:.2" transform="rotate(8.1 4118.8 8170.1) scale(8.4839)"/>
    <path d="M-69.7 120.5a1.3 1.3 0 1 1-2.6 0 1.3 1.3 0 0 1 2.6 0z" style="opacity:.3" transform="rotate(8.1 4118.8 8170.1) scale(8.4839)"/>
    <path d="M-72 120.5a1 1 0 1 0 2 0 1 1 0 0 0-2 0z" transform="rotate(8.1 4118.8 8170.1) scale(8.4839)"/>
    <path d="m-71 118 .7 1.8 1.8.7-1.8.7-.7 1.8-.7-1.8-1.8-.7 1.8-.7z" style="opacity:.2" transform="rotate(10.4 1597 5925.8) scale(6.4)"/>
    <path d="M-69.7 120.5a1.3 1.3 0 1 1-2.6 0 1.3 1.3 0 0 1 2.6 0z" style="opacity:.3" transform="rotate(10.4 1597 5925.8) scale(6.4)"/>
    <path d="M-72 120.5a1 1 0 1 0 2 0 1 1 0 0 0-2 0z" transform="rotate(10.4 1597 5925.8) scale(6.4)"/>
    <path d="m-71 118 .7 1.8 1.8.7-1.8.7-.7 1.8-.7-1.8-1.8-.7 1.8-.7z" style="opacity:.2" transform="matrix(8 0 0 8 1092.4 -446)"/>
    <path d="M-69.7 120.5a1.3 1.3 0 1 1-2.6 0 1.3 1.3 0 0 1 2.6 0z" style="opacity:.3" transform="matrix(8 0 0 8 1092.4 -446)"/>
    <path d="M-72 120.5a1 1 0 1 0 2 0 1 1 0 0 0-2 0z" transform="matrix(8 0 0 8 1092.4 -446)"/>
    <path d="m-71 118 .7 1.8 1.8.7-1.8.7-.7 1.8-.7-1.8-1.8-.7 1.8-.7z" style="opacity:.2" transform="rotate(21.9 352.8 3137.4) scale(5.82)"/>
    <path d="M-69.7 120.5a1.3 1.3 0 1 1-2.6 0 1.3 1.3 0 0 1 2.6 0z" style="opacity:.3" transform="rotate(21.9 352.8 3137.4) scale(5.82)"/>
    <path d="M-72 120.5a1 1 0 1 0 2 0 1 1 0 0 0-2 0z" transform="rotate(21.9 352.8 3137.4) scale(5.82)"/>
  </g>
</svg>