<svg xmlns="http://www.w3.org/2000/svg" viewBox="0 0 1280 1280">
  <path d="M824.6 233.7a3.6 3.6 0 1 0 5-5.1 3.6 3.6 0 0 0-5 5.1m-17.3 4.5a3.6 3.6 0 1 0 5-5 3.6 3.6 0 0 0-5 5m-16.3 6.1a3.6 3.6 0 1 0 5-5 3.6 3.6 0 0 0-5 5m-16.9 5.2a3.6 3.6 0 1 0 5-5 3.6 3.6 0 0 0-5 5m-54.9.5a3.6 3.6 0 1 0 5-5.2 3.6 3.6 0 0 0-5 5.2m-19.7-7.2a3.6 3.6 0 1 0 5-5 3.6 3.6 0 0 0-5 5m-17.5-5.6a3.6 3.6 0 1 0 5-5.1 3.6 3.6 0 0 0-5 5m-19.4-6.5a3.6 3.6 0 1 0 5-5.1 3.6 3.6 0 0 0-5 5m-19.1-6.5a3.6 3.6 0 1 0 5-5.1 3.6 3.6 0 0 0-5 5.1m-20.2-6.2a3.6 3.6 0 1 0 5-5 3.6 3.6 0 0 0-5 5m-18.7-6.4a3.6 3.6 0 1 0 5-5.2 3.6 3.6 0 0 0-5 5.2M559 230.3a3.6 3.6 0 1 0 5-5.1 3.6 3.6 0 0 0-5 5.1m-7.6 16a3.6 3.6 0 1 0 5-5.2 3.6 3.6 0 0 0-5 5.2M545 263a3.6 3.6 0 1 0 5-5 3.6 3.6 0 0 0-5 5m-6.6 16a3.6 3.6 0 1 0 5-5.2 3.6 3.6 0 0 0-5 5.2m-6.7 15.6a3.6 3.6 0 1 0 5-5 3.6 3.6 0 0 0-5 5m-7.7 16a3.6 3.6 0 1 0 5.1-5.1 3.6 3.6 0 0 0-5 5M516 328a3.6 3.6 0 1 0 5-5.1 3.6 3.6 0 0 0-5 5m-7.4 17.9a3.6 3.6 0 1 0 5-5.1 3.6 3.6 0 0 0-5 5.1m-6.6 17a3.6 3.6 0 1 0 5-5.1 3.6 3.6 0 0 0-5 5.1m-7.2 16.6a3.6 3.6 0 1 0 5-5.1 3.6 3.6 0 0 0-5 5m-7.3 16.5a3.6 3.6 0 1 0 5-5.1 3.6 3.6 0 0 0-5 5M474.7 465a3.6 3.6 0 1 0 5-5 3.6 3.6 0 0 0-5 5m1.1 12.3a3.6 3.6 0 1 0 5-5.2 3.6 3.6 0 0 0-5 5.2m7.9 45.7a3.6 3.6 0 1 0-.4-7.1 3.6 3.6 0 0 0 .4 7.1M482 411.6a3.6 3.6 0 1 0 5-5.1 3.6 3.6 0 0 0-5 5.1" style="fill:#fff;fill-opacity:.25"/>
  <g style="fill:#7fa7ca">
    <path d="m-71 118 .7 1.8 1.8.7-1.8.7-.7 1.8-.7-1.8-1.8-.7 1.8-.7z" style="opacity:.2" transform="rotate(15.3 1989.9 5141.7) scale(5.8058)"/>
    <path d="M-69.7 120.5a1.3 1.3 0 1 1-2.6 0 1.3 1.3 0 0 1 2.6 0z" style="opacity:.3" transform="rotate(15.3 1989.9 5141.7) scale(5.8058)"/>
    <path d="M-72 120.5a1 1 0 1 0 2 0 1 1 0 0 0-2 0z" transform="rotate(15.3 1989.9 5141.7) scale(5.8058)"/>
    <path d="m-71 118 .7 1.8 1.8.7-1.8.7-.7 1.8-.7-1.8-1.8-.7 1.8-.7z" style="opacity:.2" transform="rotate(33.4 1616.6 3170.5) scale(10.065)"/>
    <path d="M-69.7 120.5a1.3 1.3 0 1 1-2.6 0 1.3 1.3 0 0 1 2.6 0z" style="opacity:.3" transform="rotate(33.4 1616.6 3170.5) scale(10.065)"/>
    <path d="M-72 120.5a1 1 0 1 0 2 0 1 1 0 0 0-2 0z" transform="rotate(33.4 1616.6 3170.5) scale(10.065)"/>
    <path d="m-71 118 .7 1.8 1.8.7-1.8.7-.7 1.8-.7-1.8-1.8-.7 1.8-.7z" style="opacity:.2" transform="rotate(-24 -2302.4 -2287) scale(9.6333)"/>
    <path d="M-69.7 120.5a1.3 1.3 0 1 1-2.6 0 1.3 1.3 0 0 1 2.6 0z" style="opacity:.3" transform="rotate(-24 -2302.4 -2287) scale(9.6333)"/>
    <path d="M-72 120.5a1 1 0 1 0 2 0 1 1 0 0 0-2 0z" transform="rotate(-24 -2302.4 -2287) scale(9.6333)"/>
    <path d="m-71 118 .7 1.8 1.8.7-1.8.7-.7 1.8-.7-1.8-1.8-.7 1.8-.7z" style="opacity:.2" transform="rotate(59.3 479.6 1722.7) scale(8.8409)"/>
    <path d="M-69.7 120.5a1.3 1.3 0 1 1-2.6 0 1.3 1.3 0 0 1 2.6 0z" style="opacity:.3" transform="rotate(59.3 479.6 1722.7) scale(8.8409)"/>
    <path d="M-72 120.5a1 1 0 1 0 2 0 1 1 0 0 0-2 0z" transform="rotate(59.3 479.6 1722.7) scale(8.8409)"/>
    <path d="m-71 118 .7 1.8 1.8.7-1.8.7-.7 1.8-.7-1.8-1.8-.7 1.8-.7z" style="opacity:.2" transform="rotate(23.3 576.4 2803.7) scale(6)"/>
    <path d="M-69.7 120.5a1.3 1.3 0 1 1-2.6 0 1.3 1.3 0 0 1 2.6 0z" style="opacity:.3" transform="rotate(23.3 576.4 2803.7) scale(6)"/>
    <path d="M-72 120.5a1 1 0 1 0 2 0 1 1 0 0 0-2 0z" transform="rotate(23.3 576.4 2803.7) scale(6)"/>
    <path d="m-71 118 .7 1.8 1.8.7-1.8.7-.7 1.8-.7-1.8-1.8-.7 1.8-.7z" style="opacity:.2" transform="matrix(4.6 0 0 4.6 823.2 -21.8)"/>
    <path d="M-69.7 120.5a1.3 1.3 0 1 1-2.6 0 1.3 1.3 0 0 1 2.6 0z" style="opacity:.3" transform="matrix(4.6 0 0 4.6 823.2 -21.8)"/>
    <path d="M-72 120.5a1 1 0 1 0 2 0 1 1 0 0 0-2 0z" transform="matrix(4.6 0 0 4.6 823.2 -21.8)"/>
  </g>
</svg>