<svg xmlns="http://www.w3.org/2000/svg" viewBox="0 0 1280 1280">
  <path d="M795.8 205.7c-1.6-1-2-3-1-4.5s3.3-1.9 4.9-.9c1.6 1 2 3 1 4.5a3.7 3.7 0 0 1-4.9.9M782 215a3 3 0 0 1-1-4.4c1-1.5 3.2-1.9 4.9-.9 1.6 1 2 3 1 4.5a3.7 3.7 0 0 1-4.9.9m-14 9.5c-1.7-1-2.1-3-1-4.5 1-1.4 3.2-1.8 4.8-.8 1.6 1 2 3 1 4.5a3.7 3.7 0 0 1-4.8.8m-13.5 9.2c-1.6-1-2-3-1-4.5s3.2-1.9 4.9-.9c1.6 1 2 3 1 4.5a3.7 3.7 0 0 1-4.9.9m-13.4 9c-1.6-1-2-3-1-4.5 1-1.4 3.3-1.8 4.9-.8 1.6 1 2 3 1 4.5a3.7 3.7 0 0 1-4.9.8m-13.8 9.4c-1.6-1-2-3-1-4.5s3.2-1.8 4.9-.8c1.6 1 2 3 1 4.5a3.7 3.7 0 0 1-4.9.8m-15 10.2c-1.6-1-2.1-3-1-4.5 1-1.5 3.2-1.8 4.8-.8 1.7 1 2.1 3 1 4.5a3.7 3.7 0 0 1-4.8.8m-15.2 10.3c-1.6-1-2-3-1-4.5s3.3-1.9 4.9-.9c1.6 1 2 3 1 4.5a3.7 3.7 0 0 1-4.9.9m-150.9 35.8c-.3-1.8 1-3.5 3-3.7 2-.2 3.9 1 4.2 2.9.2 1.8-1.1 3.4-3 3.7-2 .2-3.9-1-4.2-2.9m-17.5-3.5c-.3-1.8 1.1-3.5 3-3.7 2-.2 3.9 1 4.2 2.9.3 1.8-1 3.5-3 3.7-2 .2-3.9-1-4.2-2.9m-17.7-3.5c-.3-1.9 1-3.5 3-3.7 2-.3 3.8 1 4.1 2.8.3 1.8-1 3.5-3 3.7-2 .3-3.8-1-4.1-2.8m-17-3.5c-.3-1.7 1-3.4 3-3.6 2-.3 3.8 1 4.1 2.8.3 1.9-1 3.5-3 3.7-2 .3-3.8-1-4.1-2.8m-17-3.4a3.4 3.4 0 0 1 3.1-3.7c2-.2 3.9 1 4.1 2.9.3 1.8-1 3.4-3 3.7-2 .2-3.8-1-4.1-2.9m-17.5-3.5c-.3-1.8 1-3.5 3-3.7 2-.2 3.9 1 4.2 2.9.3 1.8-1.1 3.5-3 3.7-2 .2-3.9-1-4.2-2.9m-18.9-3.8c-.3-1.8 1-3.5 3-3.7 2-.2 3.8 1 4.1 2.9.3 1.8-1 3.5-3 3.7-2 .2-3.8-1-4.1-2.9M836 178.2c-1.6-1-2.1-3-1-4.4 1-1.5 3.2-1.9 4.8-.9 1.7 1 2.1 3 1 4.5a3.7 3.7 0 0 1-4.8.8m-14 9.6c-1.7-1-2.2-3-1.1-4.5 1-1.5 3.2-1.8 4.9-.8 1.6 1 2 3 1 4.5a3.7 3.7 0 0 1-4.9.8m-13.1 8.9c-1.6-1-2-3-1-4.5s3.3-1.9 4.9-.9c1.6 1 2 3 1 4.5a3.7 3.7 0 0 1-4.9.9M655.4 298.4c-1-1.5-.5-3.6 1.2-4.5 1.7-1 3.9-.4 5 1.1 1 1.6.5 3.6-1.2 4.6-1.7 1-4 .4-5-1.2m-17.8 3.3c-1-1.6-.5-3.6 1.2-4.6 1.7-1 3.9-.4 5 1.2 1 1.5.5 3.6-1.2 4.5-1.7 1-4 .4-5-1.1m-17.6 3.2a3.2 3.2 0 0 1 1-4.6c1.8-.9 4-.4 5 1.2a3 3 0 0 1-1.1 4.5c-1.7 1-4 .5-5-1.1m-16.4 3c-1-1.6-.6-3.6 1.1-4.6 1.7-.9 4-.4 5 1.2s.5 3.6-1.1 4.5c-1.7 1-4 .5-5-1.1M543.6 395c-1.9-.4-3.2-2-3-3.8.4-1.8 2.2-3 4.1-2.6 2 .3 3.3 2 3 3.7-.3 1.8-2.1 3-4 2.6m-8.3 13.9c-1.9-.3-3.2-2-3-3.7.4-1.8 2.2-3 4-2.6 2 .3 3.3 2 3 3.7-.2 1.8-2 3-4 2.6M527 423c-1.8-.3-3.2-2-2.9-3.8.3-1.7 2.1-3 4-2.6 2 .3 3.3 2 3 3.7-.3 1.8-2 3-4 2.7m-8 13.5c-2-.3-3.2-2-3-3.8.3-1.7 2.1-2.9 4-2.6 2 .3 3.3 2 3 3.7-.3 1.8-2 3-4 2.7m-7.9 13.5c-2-.4-3.3-2-3-3.8.3-1.8 2-3 4-2.7 2 .3 3.3 2 3 3.8-.3 1.7-2.1 3-4 2.6m-8.2 13.9c-2-.3-3.3-2-3-3.7.3-1.8 2-3 4-2.7 2 .3 3.2 2 3 3.8-.3 1.7-2.1 3-4 2.6m-9 15.1c-1.9-.3-3.2-2-3-3.7.4-1.8 2.2-3 4-2.7 2 .3 3.3 2 3 3.8-.3 1.7-2 2.9-4 2.6m-9 15.2c-1.9-.3-3.2-2-3-3.7.4-1.8 2.2-3 4-2.7 2 .3 3.3 2 3 3.8-.2 1.7-2 3-4 2.6m82.4-139.7c-2-.3-3.2-2-3-3.7.3-1.8 2.1-3 4-2.7 2 .3 3.3 2 3 3.8-.3 1.7-2 3-4 2.6m-8.4 14.2c-1.9-.3-3.2-2-3-3.8.4-1.7 2.2-3 4-2.6 2 .3 3.3 2 3 3.7-.2 1.8-2 3-4 2.7m-7.7 13.1c-2-.3-3.3-2-3-3.7.3-1.8 2.1-3 4-2.7 2 .3 3.3 2 3 3.8-.3 1.7-2.1 2.9-4 2.6" style="fill:#fff;fill-opacity:.25"/>
  <g style="fill:#7fa7ca">
    <path d="m-71 118 .7 1.8 1.8.7-1.8.7-.7 1.8-.7-1.8-1.8-.7 1.8-.7z" style="opacity:.2" transform="rotate(41.9 1240.4 2632.2) scale(11.2152)"/>
    <path d="M-69.7 120.5a1.3 1.3 0 1 1-2.6 0 1.3 1.3 0 0 1 2.6 0z" style="opacity:.3" transform="rotate(41.9 1240.4 2632.2) scale(11.2152)"/>
    <path d="M-72 120.5a1 1 0 1 0 2 0 1 1 0 0 0-2 0z" transform="rotate(41.9 1240.4 2632.2) scale(11.2152)"/>
    <path d="m-71 118 .7 1.8 1.8.7-1.8.7-.7 1.8-.7-1.8-1.8-.7 1.8-.7z" style="opacity:.2" transform="rotate(-16 -1756.1 -2592.3) scale(6.4)"/>
    <path d="M-69.7 120.5a1.3 1.3 0 1 1-2.6 0 1.3 1.3 0 0 1 2.6 0z" style="opacity:.3" transform="rotate(-16 -1756.1 -2592.3) scale(6.4)"/>
    <path d="M-72 120.5a1 1 0 1 0 2 0 1 1 0 0 0-2 0z" transform="rotate(-16 -1756.1 -2592.3) scale(6.4)"/>
    <path d="m-71 118 .7 1.8 1.8.7-1.8.7-.7 1.8-.7-1.8-1.8-.7 1.8-.7z" style="opacity:.2" transform="matrix(7.6 0 0 7.6 1219.2 -632)"/>
    <path d="M-69.7 120.5a1.3 1.3 0 1 1-2.6 0 1.3 1.3 0 0 1 2.6 0z" style="opacity:.3" transform="matrix(7.6 0 0 7.6 1219.2 -632)"/>
    <path d="M-72 120.5a1 1 0 1 0 2 0 1 1 0 0 0-2 0z" transform="matrix(7.6 0 0 7.6 1219.2 -632)"/>
    <path d="m-71 118 .7 1.8 1.8.7-1.8.7-.7 1.8-.7-1.8-1.8-.7 1.8-.7z" style="opacity:.2" transform="rotate(9.5 5040.7 9188.6) scale(8.1119)"/>
    <path d="M-69.7 120.5a1.3 1.3 0 1 1-2.6 0 1.3 1.3 0 0 1 2.6 0z" style="opacity:.3" transform="rotate(9.5 5040.7 9188.6) scale(8.1119)"/>
    <path d="M-72 120.5a1 1 0 1 0 2 0 1 1 0 0 0-2 0z" transform="rotate(9.5 5040.7 9188.6) scale(8.1119)"/>
    <path d="m-71 118 .7 1.8 1.8.7-1.8.7-.7 1.8-.7-1.8-1.8-.7 1.8-.7z" style="opacity:.2" transform="matrix(6 0 0 6 900.3 -215)"/>
    <path d="M-69.7 120.5a1.3 1.3 0 1 1-2.6 0 1.3 1.3 0 0 1 2.6 0z" style="opacity:.3" transform="matrix(6 0 0 6 900.3 -215)"/>
    <path d="M-72 120.5a1 1 0 1 0 2 0 1 1 0 0 0-2 0z" transform="matrix(6 0 0 6 900.3 -215)"/>
  </g>
</svg>