<svg xmlns="http://www.w3.org/2000/svg" viewBox="0 0 1280 1280">
  <path d="M554.6 278.4a3 3 0 0 1 1.8-3.6c1.6-.6 3.2.3 3.7 1.8.5 1.6-.3 3.2-1.8 3.7-1.6.5-3.2-.3-3.7-1.9m-56.9-1.4a3 3 0 0 1 1.9-3.7 3 3 0 0 1 3.7 1.9c.5 1.5-.4 3.2-1.9 3.6-1.5.6-3.2-.3-3.7-1.8m-14.3-.4c-.5-1.5.3-3.2 1.8-3.6 1.6-.6 3.2.3 3.7 1.8.5 1.6-.3 3.2-1.9 3.7-1.5.5-3.1-.3-3.6-1.9m-15.6-.4a3 3 0 0 1 1.8-3.6 2.9 2.9 0 1 1 1.8 5.5c-1.5.5-3.1-.3-3.6-1.9m-15.8-.4a3 3 0 0 1 1.9-3.6 2.9 2.9 0 1 1 1.8 5.5 3 3 0 0 1-3.7-1.9m-44.5.2a3 3 0 0 1 1.8-3.6c1.6-.6 3.2.3 3.7 1.8.5 1.6-.3 3.2-1.9 3.7-1.5.5-3.1-.3-3.6-1.9m174.3 3c-.5-1.6.3-3.2 1.8-3.7 1.6-.5 3.2.3 3.7 1.9a3 3 0 0 1-1.8 3.6c-1.6.6-3.2-.3-3.7-1.8m-13.6-.4a3 3 0 0 1 1.9-3.6c1.5-.6 3.1.3 3.6 1.8a3 3 0 0 1-1.8 3.7 3 3 0 0 1-3.7-1.9m79.4 247a3 3 0 0 1 3.4-2.5 3 3 0 0 1-.9 5.8 3 3 0 0 1-2.5-3.3m-12.6-6.8a3 3 0 0 1 5.7.9 3 3 0 0 1-5.8-.9M622 512a3 3 0 0 1 3.3-2.5 3 3 0 0 1-.8 5.8 3 3 0 0 1-2.5-3.3m-12.3-6.6a2.9 2.9 0 0 1 3.3-2.4c1.6.2 2.7 1.6 2.5 3.2a3 3 0 1 1-5.8-.8m-12.3-6.5a2.9 2.9 0 0 1 3.3-2.5 3 3 0 1 1-.8 5.8 3 3 0 0 1-2.5-3.3m99.6 11.3a3 3 0 1 1 2.6-5.2 3 3 0 0 1 1.3 3.9 3 3 0 0 1-4 1.3M685.5 521a3 3 0 1 1 2.7-5.2 3 3 0 0 1-2.7 5.2m-177.2-79a2.9 2.9 0 0 1-3.4 2.3 2.9 2.9 0 1 1 1-5.7 3 3 0 0 1 2.4 3.4m12.5 7a3 3 0 1 1-5.8-1 3 3 0 0 1 5.8 1m12.6 7.4a3 3 0 1 1-5.7-1 3 3 0 1 1 5.7 1m12.2 6.9a3 3 0 0 1-3.4 2.4 3 3 0 0 1-2.4-3.4 3 3 0 1 1 5.8 1m12 6.9a3 3 0 1 1-5.7-1 3 3 0 0 1 5.7 1M748.4 418a3 3 0 0 1-2.6-3.2 3 3 0 0 1 5.8.7 3 3 0 0 1-3.2 2.5m-6.4 13a3 3 0 0 1-2.5-3.3 2.9 2.9 0 0 1 3.2-2.6 3 3 0 0 1 2.6 3.2 3 3 0 0 1-3.2 2.6m-6.5 13.1a3 3 0 0 1-2.5-3.2 3 3 0 0 1 3.2-2.6 3 3 0 0 1-.7 5.8m-6.1 12.6a3 3 0 0 1-2.6-3.2 2.9 2.9 0 0 1 3.2-2.6 3 3 0 0 1-.7 5.8m-6 12.4a3 3 0 0 1-2.6-3.2 2.9 2.9 0 0 1 3.2-2.5 3 3 0 0 1-.7 5.8M850.2 200a3 3 0 0 1-2.8-3c0-1.6 1.4-2.9 3-2.8a3 3 0 0 1 2.8 3 3 3 0 0 1-3 2.8m-5.9 14.5a3 3 0 0 1-2.8-3 3 3 0 0 1 3-2.9 3 3 0 0 1-.2 5.9m-76.3 165a3 3 0 0 1-2.6-3.2 3 3 0 0 1 3.2-2.6 3 3 0 0 1 2.6 3.3 3 3 0 0 1-3.2 2.5m-7.8 14a2.9 2.9 0 0 1-2.6-3.2 2.9 2.9 0 0 1 3.3-2.6c1.6.2 2.7 1.6 2.5 3.2a2.9 2.9 0 0 1-3.2 2.6m-6 12.2a3 3 0 0 1-2.5-3.2 2.9 2.9 0 0 1 3.2-2.6 3 3 0 0 1 2.6 3.2 3 3 0 0 1-3.3 2.6m45.9-92.1a2.9 2.9 0 0 1-2.6-3.2 3 3 0 0 1 3.3-2.6 3 3 0 0 1 2.5 3.2 2.9 2.9 0 0 1-3.2 2.6m-6.3 12.9a2.9 2.9 0 0 1-2.6-3.3 3 3 0 0 1 3.2-2.5 3 3 0 0 1 2.6 3.2 2.9 2.9 0 0 1-3.2 2.6m-6.5 13.1a2.9 2.9 0 0 1-2.5-3.2 3 3 0 0 1 3.2-2.6 3 3 0 0 1 2.6 3.2 2.9 2.9 0 0 1-3.3 2.6m-6.1 12.6a3 3 0 0 1 .7-5.8 3 3 0 0 1 2.5 3.2 2.9 2.9 0 0 1-3.2 2.6m-6.2 12.4a3 3 0 1 1 .7-5.7 3 3 0 0 1-.6 5.7m50.5-106.7a3 3 0 1 1 .7-5.8 3 3 0 0 1-.7 5.8m-6.5 12.9a3 3 0 1 1 3.2-2.6 3 3 0 0 1-3.2 2.6m-407.5 42.9a3 3 0 1 1 4.4 3.9 3 3 0 0 1-4.4-3.9m-7.1-12.8a3 3 0 1 1 4.4 3.8 3 3 0 0 1-4.4-3.8M398 289c1-1.2 2.9-1.3 4.1-.2 1.2 1 1.3 2.8.2 4a3 3 0 1 1-4.3-3.8m42 78a3 3 0 1 1 4.4 3.9 3 3 0 0 1-4.4-4m-7-12.8a3 3 0 1 1 4.3 3.9 3 3 0 0 1-4.3-3.9m-6.8-12.3a3 3 0 0 1 4.1-.2 3 3 0 1 1-4 .2m-6.8-12.1a3 3 0 1 1 4.4 3.8 3 3 0 0 1-4.4-3.8m343-80.9a3 3 0 0 1 1-4.2 3 3 0 0 1 4.1 1 3 3 0 0 1-1 4.2 3 3 0 0 1-4-1m-14.6 2.8a3 3 0 0 1 1-4.1 3 3 0 1 1 3.1 5.1 3 3 0 0 1-4-1m-14.8 2.8a3 3 0 0 1 1-4 3 3 0 1 1 3.1 5 3 3 0 0 1-4-1m-14.2 2.8a3 3 0 1 1 5.1-3 3 3 0 0 1-1 4 3 3 0 0 1-4-1m76.7-14.8a3 3 0 1 1 5.1-3 3 3 0 0 1-1 4 3 3 0 0 1-4-1m-14.5 2.8a3 3 0 0 1 1-4 3 3 0 0 1 4.1 1 3 3 0 0 1-1 4 3 3 0 0 1-4.1-1M705.3 260a3 3 0 0 1 1-4.2 3 3 0 1 1 3 5.2 3 3 0 0 1-4-1m-14.5 2.8a3 3 0 1 1 5.1-3 3 3 0 0 1-1 4 3 3 0 0 1-4.1-1m-15.8 3a3 3 0 0 1 1.1-4 3 3 0 0 1 4.1 1 3 3 0 1 1-5.1 3m-14.8 1.7a3 3 0 0 1 1-4 3 3 0 1 1 3 5 3 3 0 0 1-4-1m-14.5 2.9a3 3 0 0 1 1-4.2 3 3 0 0 1 4.2 1 3 3 0 0 1-1 4.2 3 3 0 0 1-4.2-1m-15.7 3a3 3 0 0 1 1-4 3 3 0 1 1 3.1 5 3 3 0 0 1-4-1" style="fill:#fff;fill-opacity:.25"/>
  <g style="fill:#7fa7ca">
    <path d="m-71 118 .7 1.8 1.8.7-1.8.7-.7 1.8-.7-1.8-1.8-.7 1.8-.7z" style="opacity:.2" transform="matrix(5.6 0 0 5.6 1257 -492.6)"/>
    <path d="M-69.7 120.5a1.3 1.3 0 1 1-2.6 0 1.3 1.3 0 0 1 2.6 0z" style="opacity:.3" transform="matrix(5.6 0 0 5.6 1257 -492.6)"/>
    <path d="M-72 120.5a1 1 0 1 0 2 0 1 1 0 0 0-2 0z" transform="matrix(5.6 0 0 5.6 1257 -492.6)"/>
    <path d="m-71 118 .7 1.8 1.8.7-1.8.7-.7 1.8-.7-1.8-1.8-.7 1.8-.7z" style="opacity:.2" transform="matrix(6.4 0 0 6.4 1285.8 -540.7)"/>
    <path d="M-69.7 120.5a1.3 1.3 0 1 1-2.6 0 1.3 1.3 0 0 1 2.6 0z" style="opacity:.3" transform="matrix(6.4 0 0 6.4 1285.8 -540.7)"/>
    <path d="M-72 120.5a1 1 0 1 0 2 0 1 1 0 0 0-2 0z" transform="matrix(6.4 0 0 6.4 1285.8 -540.7)"/>
    <path d="m-71 118 .7 1.8 1.8.7-1.8.7-.7 1.8-.7-1.8-1.8-.7 1.8-.7z" style="opacity:.2" transform="matrix(8 -3.231 3.231 8 988.9 -902)"/>
    <path d="M-69.7 120.5a1.3 1.3 0 1 1-2.6 0 1.3 1.3 0 0 1 2.6 0z" style="opacity:.3" transform="matrix(8 -3.231 3.231 8 988.9 -902)"/>
    <path d="M-72 120.5a1 1 0 1 0 2 0 1 1 0 0 0-2 0z" transform="matrix(8 -3.231 3.231 8 988.9 -902)"/>
    <path d="m-71 118 .7 1.8 1.8.7-1.8.7-.7 1.8-.7-1.8-1.8-.7 1.8-.7z" style="opacity:.2" transform="matrix(5.6 0 0 5.6 1110.2 -187.7)"/>
    <path d="M-69.7 120.5a1.3 1.3 0 1 1-2.6 0 1.3 1.3 0 0 1 2.6 0z" style="opacity:.3" transform="matrix(5.6 0 0 5.6 1110.2 -187.7)"/>
    <path d="M-72 120.5a1 1 0 1 0 2 0 1 1 0 0 0-2 0z" transform="matrix(5.6 0 0 5.6 1110.2 -187.7)"/>
    <path d="m-71 118 .7 1.8 1.8.7-1.8.7-.7 1.8-.7-1.8-1.8-.7 1.8-.7z" style="opacity:.2" transform="matrix(7.6 0 0 7.6 1212 -382.4)"/>
    <path d="M-69.7 120.5a1.3 1.3 0 1 1-2.6 0 1.3 1.3 0 0 1 2.6 0z" style="opacity:.3" transform="matrix(7.6 0 0 7.6 1212 -382.4)"/>
    <path d="M-72 120.5a1 1 0 1 0 2 0 1 1 0 0 0-2 0z" transform="matrix(7.6 0 0 7.6 1212 -382.4)"/>
    <path d="m-71 118 .7 1.8 1.8.7-1.8.7-.7 1.8-.7-1.8-1.8-.7 1.8-.7z" style="opacity:.2" transform="matrix(8 -1.7047 1.7047 8 938.6 -600.1)"/>
    <path d="M-69.7 120.5a1.3 1.3 0 1 1-2.6 0 1.3 1.3 0 0 1 2.6 0z" style="opacity:.3" transform="matrix(8 -1.7047 1.7047 8 938.6 -600.1)"/>
    <path d="M-72 120.5a1 1 0 1 0 2 0 1 1 0 0 0-2 0z" transform="matrix(8 -1.7047 1.7047 8 938.6 -600.1)"/>
    <path d="m-71 118 .7 1.8 1.8.7-1.8.7-.7 1.8-.7-1.8-1.8-.7 1.8-.7z" style="opacity:.2" transform="matrix(9.6 0 0 9.6 1164 -732.5)"/>
    <path d="M-69.7 120.5a1.3 1.3 0 1 1-2.6 0 1.3 1.3 0 0 1 2.6 0z" style="opacity:.3" transform="matrix(9.6 0 0 9.6 1164 -732.5)"/>
    <path d="M-72 120.5a1 1 0 1 0 2 0 1 1 0 0 0-2 0z" transform="matrix(9.6 0 0 9.6 1164 -732.5)"/>
    <path d="m-71 118 .7 1.8 1.8.7-1.8.7-.7 1.8-.7-1.8-1.8-.7 1.8-.7z" style="opacity:.2" transform="matrix(6 0 0 6 882.5 -329.2)"/>
    <path d="M-69.7 120.5a1.3 1.3 0 1 1-2.6 0 1.3 1.3 0 0 1 2.6 0z" style="opacity:.3" transform="matrix(6 0 0 6 882.5 -329.2)"/>
    <path d="M-72 120.5a1 1 0 1 0 2 0 1 1 0 0 0-2 0z" transform="matrix(6 0 0 6 882.5 -329.2)"/>
    <path d="m-71 118 .7 1.8 1.8.7-1.8.7-.7 1.8-.7-1.8-1.8-.7 1.8-.7z" style="opacity:.2" transform="rotate(-33 -655.6 -923.8) scale(5.6)"/>
    <path d="M-69.7 120.5a1.3 1.3 0 1 1-2.6 0 1.3 1.3 0 0 1 2.6 0z" style="opacity:.3" transform="rotate(-33 -655.6 -923.8) scale(5.6)"/>
    <path d="M-72 120.5a1 1 0 1 0 2 0 1 1 0 0 0-2 0z" transform="rotate(-33 -655.6 -923.8) scale(5.6)"/>
    <path d="m-71 118 .7 1.8 1.8.7-1.8.7-.7 1.8-.7-1.8-1.8-.7 1.8-.7z" style="opacity:.2" transform="rotate(-53.1 -779.4 -342.3) scale(8.0049)"/>
    <path d="M-69.7 120.5a1.3 1.3 0 1 1-2.6 0 1.3 1.3 0 0 1 2.6 0z" style="opacity:.3" transform="rotate(-53.1 -779.4 -342.3) scale(8.0049)"/>
    <path d="M-72 120.5a1 1 0 1 0 2 0 1 1 0 0 0-2 0z" transform="rotate(-53.1 -779.4 -342.3) scale(8.0049)"/>
    <path d="m-71 118 .7 1.8 1.8.7-1.8.7-.7 1.8-.7-1.8-1.8-.7 1.8-.7z" style="opacity:.2" transform="matrix(8.4 0 0 8.4 1124.4 -734)"/>
    <path d="M-69.7 120.5a1.3 1.3 0 1 1-2.6 0 1.3 1.3 0 0 1 2.6 0z" style="opacity:.3" transform="matrix(8.4 0 0 8.4 1124.4 -734)"/>
    <path d="M-72 120.5a1 1 0 1 0 2 0 1 1 0 0 0-2 0z" transform="matrix(8.4 0 0 8.4 1124.4 -734)"/>
    <path d="m-71 118 .7 1.8 1.8.7-1.8.7-.7 1.8-.7-1.8-1.8-.7 1.8-.7z" style="opacity:.2" transform="rotate(25.5 1228.7 2931.3) scale(6.6458)"/>
    <path d="M-69.7 120.5a1.3 1.3 0 1 1-2.6 0 1.3 1.3 0 0 1 2.6 0z" style="opacity:.3" transform="rotate(25.5 1228.7 2931.3) scale(6.6458)"/>
    <path d="M-72 120.5a1 1 0 1 0 2 0 1 1 0 0 0-2 0z" transform="rotate(25.5 1228.7 2931.3) scale(6.6458)"/>
  </g>
</svg>