<svg xmlns="http://www.w3.org/2000/svg" viewBox="0 0 1280 1280">
  <path d="M804.1 334.2a2.6 2.6 0 1 1-3.2 4 2.6 2.6 0 0 1 3.2-4m-6.8-13.4a2.6 2.6 0 1 1-3.2 4 2.6 2.6 0 0 1 3.2-4m-5.5-12.1a2.6 2.6 0 1 1-3.3 4 2.6 2.6 0 0 1 3.3-4m-64.2-44.8a2.6 2.6 0 1 1-.4-5.2 2.6 2.6 0 0 1 .4 5.2m14.2 5.1a2.6 2.6 0 1 1-.4-5.1 2.6 2.6 0 0 1 .4 5.1m12.2 5a2.6 2.6 0 1 1-.3-5.1 2.6 2.6 0 0 1 .4 5.2m31.2 21.3a2.6 2.6 0 1 1-3.2 4 2.6 2.6 0 0 1 3.2-4M700.5 236a2.6 2.6 0 1 1-3.7 3.6 2.6 2.6 0 0 1 3.7-3.6m-4.4-14.6a2.6 2.6 0 1 1-3.7 3.6 2.6 2.6 0 0 1 3.7-3.6M664 398a2.5 2.5 0 1 1 4.1-3 2.5 2.5 0 0 1-4.1 3m-12 3.3a2.5 2.5 0 1 1 4.2-3 2.5 2.5 0 0 1-4.2 3m-12.2 3.3a2.5 2.5 0 1 1 4.2-2.9 2.5 2.5 0 0 1-4.2 3m-11.6 3.1a2.5 2.5 0 1 1 4.1-2.9 2.5 2.5 0 0 1-4.1 3m-11.6 3.1a2.5 2.5 0 1 1 4.2-2.9 2.5 2.5 0 0 1-4.2 2.9m-12 3.3a2.5 2.5 0 1 1 4.2-2.9 2.5 2.5 0 0 1-4.2 2.9m-13 3.6a2.5 2.5 0 1 1 4.2-3 2.5 2.5 0 0 1-4.2 3m-13.1 3.6a2.5 2.5 0 1 1 4.2-2.9 2.5 2.5 0 0 1-4.2 2.9M532.7 439a2.6 2.6 0 1 1 3-4.2 2.6 2.6 0 0 1-3 4.2m-10.7 7a2.6 2.6 0 1 1 3.2-4 2.6 2.6 0 0 1-3.1 4m-10.8 7.2a2.6 2.6 0 1 1 3.6-.5 2.6 2.6 0 0 1-3.6.5M501 460a2.6 2.6 0 1 1 3-4 2.6 2.6 0 0 1-3 4m-10.3 7a2.6 2.6 0 1 1 3.1-4.2 2.6 2.6 0 0 1-3 4.1m-10.7 7.1a2.6 2.6 0 1 1 3.1-4.2 2.6 2.6 0 0 1-3 4.2m-11.6 7.6a2.6 2.6 0 1 1 3.1-4.1 2.6 2.6 0 0 1-3 4.1m-11.3 6.4a2.6 2.6 0 1 1 3-4.2 2.6 2.6 0 0 1-3 4.1m-10.6 7.1a2.6 2.6 0 1 1 3-4.2 2.6 2.6 0 0 1-3 4.2m-11.6 7.6a2.6 2.6 0 1 1 3.1-4.1 2.6 2.6 0 0 1-3 4.1m263.5-114.4a2.5 2.5 0 1 1 4.1-2.8 2.5 2.5 0 0 1-4.1 2.8m-12.2 3.4a2.5 2.5 0 1 1 4.1-2.9 2.5 2.5 0 0 1-4 2.9m-11.4 3.1c-.8-1.1-.5-2.7.6-3.5a2.5 2.5 0 1 1-.6 3.5m85.9-23a2.5 2.5 0 1 1 4.2-2.9 2.5 2.5 0 0 1-4.2 3m-12 3.2a2.5 2.5 0 1 1 4.2-2.9 2.5 2.5 0 0 1-4.2 3m-12.2 3.3a2.5 2.5 0 1 1 4.2-3 2.5 2.5 0 0 1-4.1 3m-11.7 3.2a2.5 2.5 0 1 1 4.1-3 2.5 2.5 0 0 1-4.1 3m-11.6 3.1a2.5 2.5 0 1 1 4.2-2.9 2.5 2.5 0 0 1-4.2 3m70-19.4a2.5 2.5 0 1 1 4.2-3 2.5 2.5 0 0 1-4.2 3m-11.3 3.1a2.5 2.5 0 1 1 4.2-3 2.5 2.5 0 0 1-4.2 3m-198.3-47.3c-1-1-1-2.5 0-3.5.9-1 2.5-1 3.5-.1a2.5 2.5 0 0 1-3.5 3.6m-11.1 5.6c-1-1-1-2.5 0-3.5a2.5 2.5 0 1 1 0 3.5m-11.2 5.7a2.5 2.5 0 1 1 3.4-3.6 2.5 2.5 0 0 1-3.4 3.6M541 338a2.5 2.5 0 1 1 3.5-3.6 2.5 2.5 0 0 1-3.4 3.6m-10.7 5.4a2.5 2.5 0 1 1 3.5-3.6 2.5 2.5 0 0 1-3.5 3.6m-11.1 5.6a2.5 2.5 0 1 1 3.5-3.6 2.5 2.5 0 0 1-3.5 3.7m-12 6a2.5 2.5 0 1 1 3.4-3.6 2.5 2.5 0 0 1-3.4 3.6m-12.2 6.2a2.5 2.5 0 1 1 3.5-3.7 2.5 2.5 0 0 1-3.5 3.7m111.3-56.5a2.5 2.5 0 1 1 3.5-3.7 2.5 2.5 0 0 1-3.5 3.7m-11.3 5.7a2.5 2.5 0 1 1 3.5-3.7 2.5 2.5 0 0 1-3.5 3.7m-10.5 5.3a2.5 2.5 0 1 1 3.5-3.7 2.5 2.5 0 0 1-3.5 3.7m79.7-39.6a2.5 2.5 0 1 1 3.5-3.7 2.5 2.5 0 0 1-3.5 3.7m-11.1 5.6a2.5 2.5 0 1 1 3.4-3.7 2.5 2.5 0 0 1-3.4 3.7m-11.2 5.7a2.5 2.5 0 1 1 3.4-3.7 2.5 2.5 0 0 1-3.5 3.7m-10.8 5.5a2.5 2.5 0 1 1 3.5-3.7 2.5 2.5 0 0 1-3.5 3.6m-10.7 5.5a2.5 2.5 0 1 1 3.5-3.7 2.5 2.5 0 0 1-3.5 3.7m64.8-33a2.5 2.5 0 1 1 3.4-3.6 2.5 2.5 0 0 1-3.4 3.6m-10.5 5.3a2.5 2.5 0 1 1 3.5-3.6 2.5 2.5 0 0 1-3.5 3.6M474.3 387.8a2.6 2.6 0 1 1-4.2-3 2.6 2.6 0 0 1 4.2 3m-23.5 45.6a2.5 2.5 0 1 1 .3-5 2.5 2.5 0 0 1-.3 5m-5 11.4a2.5 2.5 0 1 1 .3-5 2.5 2.5 0 0 1-.3 5m-5.1 11.5a2.5 2.5 0 1 1 .4-5 2.5 2.5 0 0 1-.4 5m-4.8 11.1a2.5 2.5 0 1 1 .3-5 2.5 2.5 0 0 1-.3 5m-4.9 11a2.5 2.5 0 1 1 .4-5 2.5 2.5 0 0 1-.4 5m-5 11.4a2.5 2.5 0 1 1 .4-5 2.5 2.5 0 0 1-.3 5m331.3-371a2.5 2.5 0 1 1-5 .4 2.5 2.5 0 0 1 5-.4m13.2 3.5a2.5 2.5 0 1 1-5 .4 2.5 2.5 0 0 1 5-.4M465.1 400.2a2.5 2.5 0 1 1 .4-5 2.5 2.5 0 0 1-.4 5m-5.1 11.6a2.5 2.5 0 1 1 .4-5 2.5 2.5 0 0 1-.3 5m-4.7 10.8a2.5 2.5 0 1 1 .3-5 2.5 2.5 0 0 1-.3 5M697 182.5c1.4.2 2.3 1.6 2 3a2.6 2.6 0 1 1-2-3m6.2-11.1a2.6 2.6 0 1 1-.8 5 2.6 2.6 0 0 1 .8-5m6.8-12.1a2.6 2.6 0 1 1-.9 5.1 2.6 2.6 0 0 1 1-5m6.8-12.2a2.6 2.6 0 1 1-1 5 2.6 2.6 0 0 1 1-5m6.4-11.5a2.6 2.6 0 1 1-.9 5.1 2.6 2.6 0 0 1 1-5" style="fill:#fff;fill-opacity:.25"/>
  <g style="fill:#7fa7ca">
    <path d="m-71 118 .7 1.8 1.8.7-1.8.7-.7 1.8-.7-1.8-1.8-.7 1.8-.7z" style="opacity:.2" transform="rotate(-15.7 -1785.7 -3881.7) scale(5.6)"/>
    <path d="M-69.7 120.5a1.3 1.3 0 1 1-2.6 0 1.3 1.3 0 0 1 2.6 0z" style="opacity:.3" transform="rotate(-15.7 -1785.7 -3881.7) scale(5.6)"/>
    <path d="M-72 120.5a1 1 0 1 0 2 0 1 1 0 0 0-2 0z" transform="rotate(-15.7 -1785.7 -3881.7) scale(5.6)"/>
    <path d="m-71 118 .7 1.8 1.8.7-1.8.7-.7 1.8-.7-1.8-1.8-.7 1.8-.7z" style="opacity:.2" transform="rotate(37.1 1349 2482.8) scale(8.024)"/>
    <path d="M-69.7 120.5a1.3 1.3 0 1 1-2.6 0 1.3 1.3 0 0 1 2.6 0z" style="opacity:.3" transform="rotate(37.1 1349 2482.8) scale(8.024)"/>
    <path d="M-72 120.5a1 1 0 1 0 2 0 1 1 0 0 0-2 0z" transform="rotate(37.1 1349 2482.8) scale(8.024)"/>
    <path d="m-71 118 .7 1.8 1.8.7-1.8.7-.7 1.8-.7-1.8-1.8-.7 1.8-.7z" style="opacity:.2" transform="matrix(5.6 0 0 5.6 1086.3 -470.4)"/>
    <path d="M-69.7 120.5a1.3 1.3 0 1 1-2.6 0 1.3 1.3 0 0 1 2.6 0z" style="opacity:.3" transform="matrix(5.6 0 0 5.6 1086.3 -470.4)"/>
    <path d="M-72 120.5a1 1 0 1 0 2 0 1 1 0 0 0-2 0z" transform="matrix(5.6 0 0 5.6 1086.3 -470.4)"/>
    <path d="m-71 118 .7 1.8 1.8.7-1.8.7-.7 1.8-.7-1.8-1.8-.7 1.8-.7z" style="opacity:.2" transform="matrix(6.8 0 0 6.8 1188.7 -564.3)"/>
    <path d="M-69.7 120.5a1.3 1.3 0 1 1-2.6 0 1.3 1.3 0 0 1 2.6 0z" style="opacity:.3" transform="matrix(6.8 0 0 6.8 1188.7 -564.3)"/>
    <path d="M-72 120.5a1 1 0 1 0 2 0 1 1 0 0 0-2 0z" transform="matrix(6.8 0 0 6.8 1188.7 -564.3)"/>
    <path d="m-71 118 .7 1.8 1.8.7-1.8.7-.7 1.8-.7-1.8-1.8-.7 1.8-.7z" style="opacity:.2" transform="rotate(37.4 771.5 2206.2) scale(5.6)"/>
    <path d="M-69.7 120.5a1.3 1.3 0 1 1-2.6 0 1.3 1.3 0 0 1 2.6 0z" style="opacity:.3" transform="rotate(37.4 771.5 2206.2) scale(5.6)"/>
    <path d="M-72 120.5a1 1 0 1 0 2 0 1 1 0 0 0-2 0z" transform="rotate(37.4 771.5 2206.2) scale(5.6)"/>
    <path d="m-71 118 .7 1.8 1.8.7-1.8.7-.7 1.8-.7-1.8-1.8-.7 1.8-.7z" style="opacity:.2" transform="rotate(30.6 1383.2 3333.1) scale(8.8291)"/>
    <path d="M-69.7 120.5a1.3 1.3 0 1 1-2.6 0 1.3 1.3 0 0 1 2.6 0z" style="opacity:.3" transform="rotate(30.6 1383.2 3333.1) scale(8.8291)"/>
    <path d="M-72 120.5a1 1 0 1 0 2 0 1 1 0 0 0-2 0z" transform="rotate(30.6 1383.2 3333.1) scale(8.8291)"/>
    <path d="m-71 118 .7 1.8 1.8.7-1.8.7-.7 1.8-.7-1.8-1.8-.7 1.8-.7z" style="opacity:.2" transform="rotate(29.7 1413.7 3229.3) scale(10.131)"/>
    <path d="M-69.7 120.5a1.3 1.3 0 1 1-2.6 0 1.3 1.3 0 0 1 2.6 0z" style="opacity:.3" transform="rotate(29.7 1413.7 3229.3) scale(10.131)"/>
    <path d="M-72 120.5a1 1 0 1 0 2 0 1 1 0 0 0-2 0z" transform="rotate(29.7 1413.7 3229.3) scale(10.131)"/>
    <path d="m-71 118 .7 1.8 1.8.7-1.8.7-.7 1.8-.7-1.8-1.8-.7 1.8-.7z" style="opacity:.2" transform="rotate(42.1 338.9 1784.8) scale(6.4668)"/>
    <path d="M-69.7 120.5a1.3 1.3 0 1 1-2.6 0 1.3 1.3 0 0 1 2.6 0z" style="opacity:.3" transform="rotate(42.1 338.9 1784.8) scale(6.4668)"/>
    <path d="M-72 120.5a1 1 0 1 0 2 0 1 1 0 0 0-2 0z" transform="rotate(42.1 338.9 1784.8) scale(6.4668)"/>
    <path d="m-71 118 .7 1.8 1.8.7-1.8.7-.7 1.8-.7-1.8-1.8-.7 1.8-.7z" style="opacity:.2" transform="matrix(5.6 0 0 5.6 878 -305.9)"/>
    <path d="M-69.7 120.5a1.3 1.3 0 1 1-2.6 0 1.3 1.3 0 0 1 2.6 0z" style="opacity:.3" transform="matrix(5.6 0 0 5.6 878 -305.9)"/>
    <path d="M-72 120.5a1 1 0 1 0 2 0 1 1 0 0 0-2 0z" transform="matrix(5.6 0 0 5.6 878 -305.9)"/>
  </g>
</svg>