<svg xmlns="http://www.w3.org/2000/svg" viewBox="0 0 1280 1280">
  <path d="M638.5 266a2.7 2.7 0 1 1 5.1-1.7 2.7 2.7 0 0 1-5.1 1.7m-13.5-.2a2.7 2.7 0 1 1 5.2-1.8 2.7 2.7 0 0 1-5.2 1.8m-13.6-.3a2.7 2.7 0 1 1 5.1-1.7 2.7 2.7 0 0 1-5.1 1.7m-13.1-.2a2.7 2.7 0 1 1 5.1-1.7 2.7 2.7 0 0 1-5.1 1.7m-13-.3a2.7 2.7 0 1 1 5.2-1.7 2.7 2.7 0 0 1-5.2 1.8m-13.4-.2a2.7 2.7 0 1 1 5.1-1.8 2.7 2.7 0 0 1-5.1 1.8m-14.6-.3a2.7 2.7 0 1 1 5.1-1.7 2.7 2.7 0 0 1-5.1 1.7m-14.7-.2a2.7 2.7 0 1 1 5.1-1.8 2.7 2.7 0 0 1-5.1 1.8m-15 .9a2.7 2.7 0 1 1 5.2-1.7 2.7 2.7 0 0 1-5.2 1.7m-13.6-.2a2.7 2.7 0 1 1 5.2-1.7 2.7 2.7 0 0 1-5.2 1.7m-13-.2a2.7 2.7 0 1 1 5-1.8 2.7 2.7 0 0 1-5 1.8m-13-.2a2.7 2.7 0 1 1 5.1-1.8 2.7 2.7 0 0 1-5.2 1.8m-13.4-.3a2.7 2.7 0 1 1 5.2-1.7 2.7 2.7 0 0 1-5.2 1.7m-14.5-.2a2.7 2.7 0 1 1 5.1-1.7 2.7 2.7 0 0 1-5.2 1.7m-14.7-.2a2.7 2.7 0 1 1 5.2-1.8 2.7 2.7 0 0 1-5.2 1.7m-14.8.2a2.7 2.7 0 1 1 5.2-1.7 2.7 2.7 0 0 1-5.2 1.7m247.1 2.4a2.7 2.7 0 1 1 5.2-1.7 2.7 2.7 0 0 1-5.2 1.7m-13.6-.2a2.7 2.7 0 1 1 5.1-1.7 2.7 2.7 0 0 1-5.1 1.7m-12.7-.3a2.7 2.7 0 1 1 5.1-1.7 2.7 2.7 0 0 1-5.1 1.8m96.1 2.3a2.7 2.7 0 1 1 5.2-1.7 2.7 2.7 0 0 1-5.2 1.7m-13.4-.2a2.7 2.7 0 1 1 5.2-1.8 2.7 2.7 0 0 1-5.2 1.8m-13.7-.2a2.7 2.7 0 1 1 5.2-1.8 2.7 2.7 0 0 1-5.2 1.7m-13-.2a2.7 2.7 0 1 1 5.1-1.7 2.7 2.7 0 0 1-5.1 1.7m-13-.2a2.7 2.7 0 1 1 5.2-1.8 2.7 2.7 0 0 1-5.2 1.8m78.6 1.2c-.5-1.4.2-3 1.7-3.4a2.7 2.7 0 1 1-1.7 3.4m-12.8-.2a2.7 2.7 0 1 1 5.2-1.7 2.7 2.7 0 0 1-5.1 1.7M424 285.7a2.8 2.8 0 1 1-5.3 1.7 2.8 2.8 0 0 1 5.4-1.7m24.9 49.6a2.7 2.7 0 1 1-4.2-3.5 2.7 2.7 0 0 1 4.2 3.5m6.8 11.7a2.7 2.7 0 1 1-4.2-3.6 2.7 2.7 0 0 1 4.2 3.5m6.9 11.8a2.7 2.7 0 1 1-4.2-3.5 2.7 2.7 0 0 1 4.2 3.5m6.6 11.3a2.7 2.7 0 1 1-4.2-3.5 2.7 2.7 0 0 1 4.2 3.5m6.6 11.2a2.7 2.7 0 1 1-4.2-3.5 2.7 2.7 0 0 1 4.2 3.5m6.8 11.6a2.7 2.7 0 1 1-4.2-3.5 2.7 2.7 0 0 1 4.2 3.5m-53.6-91.2a2.7 2.7 0 1 1-4.1-3.5 2.7 2.7 0 0 1 4.1 3.5m6.9 11.8a2.7 2.7 0 1 1-4.2-3.5 2.7 2.7 0 0 1 4.3 3.5m6.4 11a2.7 2.7 0 1 1-4.2-3.5 2.7 2.7 0 0 1 4.2 3.5M704.2 198a2.7 2.7 0 1 1-5.3-1.3 2.7 2.7 0 0 1 5.3 1.3m11.2 7.3a2.7 2.7 0 1 1-5.3-1.2 2.7 2.7 0 0 1 5.3 1.2m11.5 7.5a2.7 2.7 0 1 1-5.3-1.3 2.7 2.7 0 0 1 5.3 1.3m10.9 7.2a2.7 2.7 0 1 1-5.3-1.3 2.7 2.7 0 0 1 5.3 1.3m10.9 7a2.7 2.7 0 1 1-5.3-1.2 2.7 2.7 0 0 1 5.3 1.3m11.3 7.3a2.7 2.7 0 1 1-5.4-1.3 2.7 2.7 0 0 1 5.4 1.3m12.2 8a2.7 2.7 0 1 1-5.3-1.3 2.7 2.7 0 0 1 5.3 1.3m12.3 8a2.7 2.7 0 1 1-5.3-1.3 2.7 2.7 0 0 1 5.3 1.3m-113.1-73.7a2.7 2.7 0 1 1-5.3-1.2 2.7 2.7 0 0 1 5.3 1.2m11.4 7.5a2.7 2.7 0 1 1-5.3-1.3 2.7 2.7 0 0 1 5.3 1.3m10.7 7a2.7 2.7 0 1 1-5.3-1.3 2.7 2.7 0 0 1 5.3 1.3M613.3 138a2.7 2.7 0 1 1-5.3-1.3 2.7 2.7 0 0 1 5.3 1.3m11.2 7.4a2.7 2.7 0 1 1-5.3-1.3 2.7 2.7 0 0 1 5.3 1.3m11.5 7.4a2.7 2.7 0 1 1-5.3-1.2 2.7 2.7 0 0 1 5.3 1.2m10.9 7.2a2.7 2.7 0 1 1-5.3-1.3 2.7 2.7 0 0 1 5.3 1.3m10.9 7a2.7 2.7 0 1 1-5.3-1.2 2.7 2.7 0 0 1 5.3 1.3M490 199.7a2.7 2.7 0 1 1 2.9-4.7 2.7 2.7 0 0 1-2.8 4.7m-10.5 8.5a2.7 2.7 0 1 1 2.9-4.7 2.7 2.7 0 0 1-2.9 4.7m-10.6 8.6a2.7 2.7 0 1 1 2.9-4.6 2.7 2.7 0 0 1-2.8 4.6m-10.1 8.3a2.7 2.7 0 1 1 2.8-4.7 2.7 2.7 0 0 1-2.8 4.7m-10 8.2a2.7 2.7 0 1 1 2.7-4.6 2.7 2.7 0 0 1-2.8 4.6m-10.4 8.5a2.7 2.7 0 1 1 2.8-4.6 2.7 2.7 0 0 1-2.8 4.6m-11.3 9.2a2.7 2.7 0 1 1 2.8-4.6 2.7 2.7 0 0 1-2.8 4.7m93-76.3a2.7 2.7 0 1 1 2.8-4.6 2.7 2.7 0 0 1-2.8 4.6m-10.6 8.7a2.7 2.7 0 1 1 2.9-4.7 2.7 2.7 0 0 1-2.9 4.7m-9.8 8a2.7 2.7 0 1 1 2.8-4.7 2.7 2.7 0 0 1-2.8 4.7m64.5-51.9a2.7 2.7 0 1 1 2.8-4.7 2.7 2.7 0 0 1-2.8 4.7m-10.6 8.7a2.7 2.7 0 1 1 2.8-4.7 2.7 2.7 0 0 1-2.8 4.7m-10.1 8.3a2.7 2.7 0 1 1 2.8-4.7 2.7 2.7 0 0 1-2.8 4.7m-10.1 8.2a2.7 2.7 0 1 1 2.8-4.7 2.7 2.7 0 0 1-2.8 4.7M806.6 297a2.8 2.8 0 1 1-5.4-1.5 2.8 2.8 0 0 1 5.4 1.5m-6.6 55.1a2.7 2.7 0 1 1-1.5-5.2 2.7 2.7 0 0 1 1.6 5.2m-.8 13.4a2.7 2.7 0 1 1-1.5-5.2 2.7 2.7 0 0 1 1.5 5.2m-.7 13.7a2.7 2.7 0 1 1-1.6-5.3c1.5-.4 3 .4 3.4 1.9.5 1.4-.4 3-1.8 3.4m-.7 13c-1.5.4-3-.4-3.4-1.8-.4-1.5.4-3 1.8-3.4 1.5-.5 3 .4 3.4 1.8.4 1.5-.4 3-1.8 3.4m-.7 13a2.7 2.7 0 1 1-1.6-5.3 2.7 2.7 0 0 1 1.6 5.3m-.8 13.4a2.7 2.7 0 1 1-1.5-5.2 2.7 2.7 0 0 1 1.5 5.2M802 313a2.7 2.7 0 0 1-1.5-5.2 2.7 2.7 0 0 1 1.5 5.3m-.7 13.6a2.7 2.7 0 1 1-1.6-5.2 2.7 2.7 0 0 1 1.6 5.2m-.7 12.7a2.7 2.7 0 1 1-1.5-5.3 2.7 2.7 0 0 1 1.5 5.3m-307.3 95.7a2.7 2.7 0 1 1-1.6-5.2 2.7 2.7 0 0 1 1.6 5.2m-.7 13.1a2.7 2.7 0 1 1-1.6-5.2 2.7 2.7 0 0 1 1.6 5.2m-.7 13a2.7 2.7 0 1 1-1.6-5.3 2.7 2.7 0 0 1 1.6 5.3m-.8 13.4a2.7 2.7 0 1 1-1.5-5.3 2.7 2.7 0 0 1 1.5 5.3m330.3-14.2a2.8 2.8 0 1 1-5.6.1 2.8 2.8 0 0 1 5.6-.1" style="fill:#fff;fill-opacity:.25;fill-rule:nonzero;stroke:none;stroke-width:.4"/>
  <g style="fill:#7fa7ca">
    <path d="m-71 118 .7 1.8 1.8.7-1.8.7-.7 1.8-.7-1.8-1.8-.7 1.8-.7z" style="opacity:.2" transform="matrix(7.6 0 0 7.6 1374.4 -439.1)"/>
    <path d="M-69.7 120.5a1.3 1.3 0 1 1-2.6 0 1.3 1.3 0 0 1 2.6 0z" style="opacity:.3" transform="matrix(7.6 0 0 7.6 1374.4 -439.1)"/>
    <path d="M-72 120.5a1 1 0 1 0 2 0 1 1 0 0 0-2 0z" transform="matrix(7.6 0 0 7.6 1374.4 -439.1)"/>
    <path d="m-71 118 .7 1.8 1.8.7-1.8.7-.7 1.8-.7-1.8-1.8-.7 1.8-.7z" style="opacity:.2" transform="rotate(22.4 1108.5 3856.9) scale(6.8)"/>
    <path d="M-69.7 120.5a1.3 1.3 0 1 1-2.6 0 1.3 1.3 0 0 1 2.6 0z" style="opacity:.3" transform="rotate(22.4 1108.5 3856.9) scale(6.8)"/>
    <path d="M-72 120.5a1 1 0 1 0 2 0 1 1 0 0 0-2 0z" transform="rotate(22.4 1108.5 3856.9) scale(6.8)"/>
    <path d="m-71 118 .7 1.8 1.8.7-1.8.7-.7 1.8-.7-1.8-1.8-.7 1.8-.7z" style="opacity:.2" transform="rotate(24.1 1454 3561.8) scale(6.8)"/>
    <path d="M-69.7 120.5a1.3 1.3 0 1 1-2.6 0 1.3 1.3 0 0 1 2.6 0z" style="opacity:.3" transform="rotate(24.1 1454 3561.8) scale(6.8)"/>
    <path d="M-72 120.5a1 1 0 1 0 2 0 1 1 0 0 0-2 0z" transform="rotate(24.1 1454 3561.8) scale(6.8)"/>
    <path d="m-71 118 .7 1.8 1.8.7-1.8.7-.7 1.8-.7-1.8-1.8-.7 1.8-.7z" style="opacity:.2" transform="matrix(7.6 0 0 7.6 1128.5 -790.7)"/>
    <path d="M-69.7 120.5a1.3 1.3 0 1 1-2.6 0 1.3 1.3 0 0 1 2.6 0z" style="opacity:.3" transform="matrix(7.6 0 0 7.6 1128.5 -790.7)"/>
    <path d="M-72 120.5a1 1 0 1 0 2 0 1 1 0 0 0-2 0z" transform="matrix(7.6 0 0 7.6 1128.5 -790.7)"/>
    <path d="m-71 118 .7 1.8 1.8.7-1.8.7-.7 1.8-.7-1.8-1.8-.7 1.8-.7z" style="opacity:.2" transform="matrix(7.6 -2.3525 2.3525 7.6 667.8 -821)"/>
    <path d="M-69.7 120.5a1.3 1.3 0 1 1-2.6 0 1.3 1.3 0 0 1 2.6 0z" style="opacity:.3" transform="matrix(7.6 -2.3525 2.3525 7.6 667.8 -821)"/>
    <path d="M-72 120.5a1 1 0 1 0 2 0 1 1 0 0 0-2 0z" transform="matrix(7.6 -2.3525 2.3525 7.6 667.8 -821)"/>
    <path d="m-71 118 .7 1.8 1.8.7-1.8.7-.7 1.8-.7-1.8-1.8-.7 1.8-.7z" style="opacity:.2" transform="rotate(12.6 1866.9 5032.8) scale(6.8)"/>
    <path d="M-69.7 120.5a1.3 1.3 0 1 1-2.6 0 1.3 1.3 0 0 1 2.6 0z" style="opacity:.3" transform="rotate(12.6 1866.9 5032.8) scale(6.8)"/>
    <path d="M-72 120.5a1 1 0 1 0 2 0 1 1 0 0 0-2 0z" transform="rotate(12.6 1866.9 5032.8) scale(6.8)"/>
    <path d="m-71 118 .7 1.8 1.8.7-1.8.7-.7 1.8-.7-1.8-1.8-.7 1.8-.7z" style="opacity:.2" transform="rotate(41 382.1 1886.1) scale(6.3609)"/>
    <path d="M-69.7 120.5a1.3 1.3 0 1 1-2.6 0 1.3 1.3 0 0 1 2.6 0z" style="opacity:.3" transform="rotate(41 382.1 1886.1) scale(6.3609)"/>
    <path d="M-72 120.5a1 1 0 1 0 2 0 1 1 0 0 0-2 0z" transform="rotate(41 382.1 1886.1) scale(6.3609)"/>
  </g>
</svg>