<svg xmlns="http://www.w3.org/2000/svg" viewBox="0 0 1280 1280">
  <path d="M842.7 157c.5 1 .1 2.3-1 2.9a2 2 0 0 1-2.7-.9 2 2 0 0 1 .8-2.8c1-.6 2.3-.2 2.9.8m-.3-10.7c.6 1 .2 2.3-.8 2.8s-2.3.1-2.9-.9c-.5-1-.1-2.2 1-2.8a2 2 0 0 1 2.7.9M469.7 355.4c.8.8.9 2.1.1 3a2 2 0 0 1-3 0c-.8-.7-.8-2 0-2.9a2 2 0 0 1 2.9 0m86.4 174.2c-.9-.7-1-2-.2-3 .8-.8 2-.9 3-.1.8.7 1 2 .2 2.9a2 2 0 0 1-3 .2m284.9-340c-1.2.5-2.4 0-2.8-1.1-.5-1 0-2.3 1.1-2.8a2 2 0 0 1 2.7 1.2 2 2 0 0 1-1 2.7m.5 11.2c-1 .4-2.3-.1-2.7-1.1-.5-1.1 0-2.4 1-2.8a2.1 2.1 0 0 1 1.7 3.9M760 227a2 2 0 0 1-.5-2.8 2 2 0 0 1 2.8-.4 2 2 0 0 1 .5 2.8 2 2 0 0 1-2.8.5m-8.2 5.9a2 2 0 0 1 2.3-3.4 2 2 0 0 1-2.3 3.4m-8.3 5.8a2 2 0 0 1-.5-2.8 2 2 0 0 1 3.3 2.3 2 2 0 0 1-2.8.5m-329.1 78.6a2 2 0 0 1-2 2.2 2 2 0 0 1-2.2-2c0-1 .8-2 2-2.2 1 0 2 .8 2.2 2m10.7 2.9a2 2 0 0 1-1.9 2.3c-1.1 0-2.1-.8-2.2-2a2 2 0 0 1 2-2.2 2 2 0 0 1 2.1 2M551 559.1c-.8.9-2 1-3 .3-.8-.8-1-2.1-.2-3 .8-.9 2-1 3-.2.8.7 1 2 .2 3m-27.5-48a2 2 0 1 1-3.2-2.6 2 2 0 1 1 3.2 2.6m2 8.9a2 2 0 0 1-2.9-.6 2 2 0 0 1 .7-2.8 2 2 0 0 1 2.8.6 2 2 0 0 1-.6 2.8m2.2 9.8a2 2 0 0 1-2.8-.6 2 2 0 0 1 .6-2.9 2 2 0 0 1 2.8.7 2 2 0 0 1-.6 2.8m2.3 9.9a2 2 0 0 1-2.8-.6 2 2 0 0 1 .6-2.8 2 2 0 0 1 2.8.6 2 2 0 0 1-.6 2.8m2.2 9.5a2 2 0 1 1-2.2-3.4 2 2 0 0 1 2.9.6 2 2 0 0 1-.7 2.8m2.2 9.5a2 2 0 0 1-2.8-.6 2 2 0 0 1 .6-2.8 2 2 0 1 1 2.2 3.4m266.8-390.2c.9.8 1 2 .3 3-.7.8-2 1-2.9.2a2 2 0 0 1-.3-2.8c.7-1 2-1 2.9-.4m21.2.9a2 2 0 0 1 4.1.5 2 2 0 0 1-2.3 1.8 2 2 0 0 1-1.8-2.3m-41.2 32.7a2 2 0 0 1 2.2 1.8 2 2 0 0 1-1.9 2.2 2 2 0 0 1-2.2-1.8 2 2 0 0 1 1.9-2.2m2.6-9.9a2 2 0 0 1 2.2 1.9 2 2 0 0 1-1.9 2.2 2 2 0 0 1-2.1-1.9c-.1-1.1.7-2 1.8-2.2M467.8 398a2.1 2.1 0 0 1 1.5 3.9 2.1 2.1 0 0 1-1.5-4m-.4-10.2a2 2 0 0 1 2.7 1.2 2 2 0 0 1-1.1 2.7 2 2 0 0 1-2.7-1.2 2 2 0 0 1 1.1-2.7m-.4-11.2c1.2-.4 2.4.1 2.8 1.2a2 2 0 0 1-1.2 2.7 2 2 0 0 1-2.7-1.2c-.4-1 .1-2.2 1.2-2.7m-.4-11.3c1.1-.4 2.3.2 2.7 1.2a2 2 0 0 1-1.1 2.8c-1.1.4-2.3-.2-2.8-1.2-.4-1.1.2-2.3 1.2-2.8m197.1-38.7a2 2 0 0 1-1.2-2.7 2 2 0 1 1 1.2 2.6m-6.4 7.8a2 2 0 0 1-1.2-2.6 2 2 0 0 1 2.6-1.2 2 2 0 0 1 1.2 2.6 2 2 0 0 1-2.6 1.2M651 342a2 2 0 0 1-1.3-2.6 2 2 0 0 1 2.6-1.2 2 2 0 0 1-1.4 3.8m-6.2 7.6a2 2 0 0 1-1.2-2.6 2 2 0 0 1 2.6-1.2 2 2 0 0 1 1.2 2.6 2 2 0 0 1-2.6 1.2m-6.2 7.4a2 2 0 1 1 1.4-3.8 2 2 0 0 1 1.2 2.6 2 2 0 0 1-2.6 1.2m43.9-53a2 2 0 0 1-1.3-2.7 2 2 0 0 1 3.9 1.4 2 2 0 0 1-2.6 1.2m-6.5 7.9a2 2 0 1 1 1.4-3.8 2 2 0 1 1-1.4 3.8m-6.1 7.2a2 2 0 0 1 1.4-3.8 2 2 0 0 1 1.2 2.7 2 2 0 0 1-2.6 1.2M716 264a2 2 0 0 1-1.2-2.6 2 2 0 0 1 3.8 1.4 2 2 0 0 1-2.6 1.3m-6.4 7.7a2 2 0 0 1 1.4-3.8 2 2 0 0 1 1.2 2.6 2 2 0 0 1-2.6 1.2m-6.5 7.8a2 2 0 1 1 1.4-3.8 2 2 0 0 1 1.2 2.6 2 2 0 0 1-2.6 1.2m-6.2 7.6a2 2 0 0 1-1.2-2.6 2 2 0 0 1 2.6-1.3 2 2 0 0 1 1.2 2.7 2 2 0 0 1-2.6 1.2m-6.2 7.4a2 2 0 0 1 1.4-3.8 2 2 0 0 1 1.2 2.6 2 2 0 0 1-2.6 1.2M390 287.4a2 2 0 1 1-2.4-3.3 2 2 0 0 1 2.3 3.3m2.8 9.9a2 2 0 1 1-2.4-3.4 2 2 0 0 1 2.4 3.4M589 418.7a2 2 0 1 1-.3-4.1 2 2 0 0 1 .3 4.1m-2.8 10.1a2 2 0 0 1-2.2-1.9 2 2 0 0 1 2-2.2 2 2 0 0 1 2.2 1.9 2 2 0 0 1-2 2.2m-2.6 9.7a2 2 0 0 1-2.2-2c-.1-1 .8-2.1 2-2.2a2 2 0 1 1 .2 4.2M581 448a2 2 0 0 1-2.2-1.8c-.1-1.2.8-2.2 2-2.3 1 0 2 .8 2.2 2a2 2 0 0 1-2 2.2m-2.7 9.9a2 2 0 0 1-.3-4.1 2 2 0 0 1 2.3 1.9c0 1.1-.8 2.2-2 2.2m-2.9 10.8a2 2 0 0 1-2.2-2c-.1-1 .7-2 1.9-2.2 1.1 0 2.1.8 2.2 2a2 2 0 0 1-1.9 2.2m-3.4 9.8a2 2 0 0 1-2.3-2c-.1-1 .7-2 1.9-2.2a2 2 0 1 1 .3 4.2m-2.7 10c-1.1 0-2.1-.8-2.2-2a2 2 0 0 1 2-2.2 2 2 0 0 1 2.1 2c.1 1-.7 2-1.9 2.2m-2.9 10.7a2 2 0 0 1-2.2-1.9 2 2 0 0 1 4.2-.3 2 2 0 0 1-2 2.2m-66.5-28c.7-.9 2-1 3-.3.8.6 1 2 .3 2.8-.7.9-2 1-2.9.4a2 2 0 0 1-.4-2.9m-5.3-8.5c.6-.8 2-1 2.8-.3 1 .7 1 2 .4 2.9-.7.8-2 1-2.9.3a2 2 0 0 1-.3-2.9m-5.5-8.6c.7-.8 2-1 2.8-.3 1 .7 1 2 .4 2.8a2 2 0 0 1-2.9.4 2 2 0 0 1-.3-2.9m-5.3-8.2c.7-.9 2-1 2.9-.4.9.7 1 2 .3 3-.6.8-2 1-2.8.2a2 2 0 0 1-.4-2.8m-5.2-8.2c.7-.9 2-1 2.9-.4.9.8 1 2 .3 3-.7.8-2 1-2.8.3a2 2 0 0 1-.4-2.9m-5.4-8.4c.7-1 2-1 2.9-.4.9.7 1 2 .3 2.8-.6 1-2 1-2.8.4a2 2 0 0 1-.4-2.8M608.3 380a2 2 0 0 1 2.9.4 2 2 0 0 1-.4 3c-1 .6-2.3.5-3-.4a2 2 0 0 1 .5-3m11.1-6a2 2 0 0 1-1.4 3.8 2 2 0 0 1 1.4-3.8M505 479.3c.7-.9 2-1 2.9-.4.9.7 1 2 .4 2.9-.7.9-2 1-3 .3a2 2 0 0 1-.3-2.8m308.6-237.5c-.5 1-1.7 1.5-2.8 1a2 2 0 0 1-1-2.7 2 2 0 0 1 2.7-1 2 2 0 0 1 1 2.7m8.3-6.9a2 2 0 0 1-2.7 1 2 2 0 0 1-1-2.7 2 2 0 0 1 2.7-1 2 2 0 0 1 1 2.7m9.1-7.9a2.2 2.2 0 0 1-2.8 1.2c-1-.5-1.5-1.8-1-2.8a2 2 0 0 1 2.7-1 2 2 0 0 1 1 2.6M452 329.8a2 2 0 0 1-2.6 1.1 2 2 0 0 1 1.5-3.8 2 2 0 0 1 1.2 2.7m8.2 7.2a2 2 0 1 1-3.8-1.5 2 2 0 0 1 2.7-1.1 2 2 0 0 1 1.1 2.6" style="fill:#fff;fill-opacity:.25;fill-rule:nonzero;stroke:none;stroke-width:.4"/>
  <g style="fill:#7fa7ca">
    <path d="m-71 118 .7 1.8 1.8.7-1.8.7-.7 1.8-.7-1.8-1.8-.7 1.8-.7z" style="opacity:.2" transform="matrix(6.8 0 0 6.8 862.5 -551.3)"/>
    <path d="M-69.7 120.5a1.3 1.3 0 1 1-2.6 0 1.3 1.3 0 0 1 2.6 0z" style="opacity:.3" transform="matrix(6.8 0 0 6.8 862.5 -551.3)"/>
    <path d="M-72 120.5a1 1 0 1 0 2 0 1 1 0 0 0-2 0z" transform="matrix(6.8 0 0 6.8 862.5 -551.3)"/>
    <path d="m-71 118 .7 1.8 1.8.7-1.8.7-.7 1.8-.7-1.8-1.8-.7 1.8-.7z" style="opacity:.2" transform="matrix(6 0 0 6 823.4 -411.3)"/>
    <path d="M-69.7 120.5a1.3 1.3 0 1 1-2.6 0 1.3 1.3 0 0 1 2.6 0z" style="opacity:.3" transform="matrix(6 0 0 6 823.4 -411.3)"/>
    <path d="M-72 120.5a1 1 0 1 0 2 0 1 1 0 0 0-2 0z" transform="matrix(6 0 0 6 823.4 -411.3)"/>
    <path d="m-71 118 .7 1.8 1.8.7-1.8.7-.7 1.8-.7-1.8-1.8-.7 1.8-.7z" style="opacity:.2" transform="matrix(2.2022 4.4 -4.4 2.2022 1123.9 370.6)"/>
    <path d="M-69.7 120.5a1.3 1.3 0 1 1-2.6 0 1.3 1.3 0 0 1 2.6 0z" style="opacity:.3" transform="matrix(2.2022 4.4 -4.4 2.2022 1123.9 370.6)"/>
    <path d="M-72 120.5a1 1 0 1 0 2 0 1 1 0 0 0-2 0z" transform="matrix(2.2022 4.4 -4.4 2.2022 1123.9 370.6)"/>
    <path d="m-71 118 .7 1.8 1.8.7-1.8.7-.7 1.8-.7-1.8-1.8-.7 1.8-.7z" style="opacity:.2" transform="rotate(24.8 498.2 2207.8) scale(4.4)"/>
    <path d="M-69.7 120.5a1.3 1.3 0 1 1-2.6 0 1.3 1.3 0 0 1 2.6 0z" style="opacity:.3" transform="rotate(24.8 498.2 2207.8) scale(4.4)"/>
    <path d="M-72 120.5a1 1 0 1 0 2 0 1 1 0 0 0-2 0z" transform="rotate(24.8 498.2 2207.8) scale(4.4)"/>
    <path d="m-71 118 .7 1.8 1.8.7-1.8.7-.7 1.8-.7-1.8-1.8-.7 1.8-.7z" style="opacity:.2" transform="rotate(34.5 641.7 2150) scale(6.8)"/>
    <path d="M-69.7 120.5a1.3 1.3 0 1 1-2.6 0 1.3 1.3 0 0 1 2.6 0z" style="opacity:.3" transform="rotate(34.5 641.7 2150) scale(6.8)"/>
    <path d="M-72 120.5a1 1 0 1 0 2 0 1 1 0 0 0-2 0z" transform="rotate(34.5 641.7 2150) scale(6.8)"/>
    <path d="m-71 118 .7 1.8 1.8.7-1.8.7-.7 1.8-.7-1.8-1.8-.7 1.8-.7z" style="opacity:.2" transform="matrix(5.2 0 0 5.2 883.9 -132)"/>
    <path d="M-69.7 120.5a1.3 1.3 0 1 1-2.6 0 1.3 1.3 0 0 1 2.6 0z" style="opacity:.3" transform="matrix(5.2 0 0 5.2 883.9 -132)"/>
    <path d="M-72 120.5a1 1 0 1 0 2 0 1 1 0 0 0-2 0z" transform="matrix(5.2 0 0 5.2 883.9 -132)"/>
    <path d="m-71 118 .7 1.8 1.8.7-1.8.7-.7 1.8-.7-1.8-1.8-.7 1.8-.7z" style="opacity:.2" transform="matrix(5.2 0 0 5.2 910.8 -57.8)"/>
    <path d="M-69.7 120.5a1.3 1.3 0 1 1-2.6 0 1.3 1.3 0 0 1 2.6 0z" style="opacity:.3" transform="matrix(5.2 0 0 5.2 910.8 -57.8)"/>
    <path d="M-72 120.5a1 1 0 1 0 2 0 1 1 0 0 0-2 0z" transform="matrix(5.2 0 0 5.2 910.8 -57.8)"/>
    <path d="m-71 118 .7 1.8 1.8.7-1.8.7-.7 1.8-.7-1.8-1.8-.7 1.8-.7z" style="opacity:.2" transform="rotate(51.1 216.7 1606) scale(5.6)"/>
    <path d="M-69.7 120.5a1.3 1.3 0 1 1-2.6 0 1.3 1.3 0 0 1 2.6 0z" style="opacity:.3" transform="rotate(51.1 216.7 1606) scale(5.6)"/>
    <path d="M-72 120.5a1 1 0 1 0 2 0 1 1 0 0 0-2 0z" transform="rotate(51.1 216.7 1606) scale(5.6)"/>
    <path d="m-71 118 .7 1.8 1.8.7-1.8.7-.7 1.8-.7-1.8-1.8-.7 1.8-.7z" style="opacity:.2" transform="rotate(-28.3 -569.7 -1406.3) scale(6.8)"/>
    <path d="M-69.7 120.5a1.3 1.3 0 1 1-2.6 0 1.3 1.3 0 0 1 2.6 0z" style="opacity:.3" transform="rotate(-28.3 -569.7 -1406.3) scale(6.8)"/>
    <path d="M-72 120.5a1 1 0 1 0 2 0 1 1 0 0 0-2 0z" transform="rotate(-28.3 -569.7 -1406.3) scale(6.8)"/>
    <path d="m-71 118 .7 1.8 1.8.7-1.8.7-.7 1.8-.7-1.8-1.8-.7 1.8-.7z" style="opacity:.2" transform="matrix(8 0 0 8 1166.7 -566.1)"/>
    <path d="M-69.7 120.5a1.3 1.3 0 1 1-2.6 0 1.3 1.3 0 0 1 2.6 0z" style="opacity:.3" transform="matrix(8 0 0 8 1166.7 -566.1)"/>
    <path d="M-72 120.5a1 1 0 1 0 2 0 1 1 0 0 0-2 0z" transform="matrix(8 0 0 8 1166.7 -566.1)"/>
    <path d="m-71 118 .7 1.8 1.8.7-1.8.7-.7 1.8-.7-1.8-1.8-.7 1.8-.7z" style="opacity:.2" transform="matrix(5.2 0 0 5.2 999.6 -259.9)"/>
    <path d="M-69.7 120.5a1.3 1.3 0 1 1-2.6 0 1.3 1.3 0 0 1 2.6 0z" style="opacity:.3" transform="matrix(5.2 0 0 5.2 999.6 -259.9)"/>
    <path d="M-72 120.5a1 1 0 1 0 2 0 1 1 0 0 0-2 0z" transform="matrix(5.2 0 0 5.2 999.6 -259.9)"/>
    <path d="m-71 118 .7 1.8 1.8.7-1.8.7-.7 1.8-.7-1.8-1.8-.7 1.8-.7z" style="opacity:.2" transform="matrix(8.4 0 0 8.4 1328 -763)"/>
    <path d="M-69.7 120.5a1.3 1.3 0 1 1-2.6 0 1.3 1.3 0 0 1 2.6 0z" style="opacity:.3" transform="matrix(8.4 0 0 8.4 1328 -763)"/>
    <path d="M-72 120.5a1 1 0 1 0 2 0 1 1 0 0 0-2 0z" transform="matrix(8.4 0 0 8.4 1328 -763)"/>
    <path d="m-71 118 .7 1.8 1.8.7-1.8.7-.7 1.8-.7-1.8-1.8-.7 1.8-.7z" style="opacity:.2" transform="rotate(12.1 1708 5493.7) scale(4.4)"/>
    <path d="M-69.7 120.5a1.3 1.3 0 1 1-2.6 0 1.3 1.3 0 0 1 2.6 0z" style="opacity:.3" transform="rotate(12.1 1708 5493.7) scale(4.4)"/>
    <path d="M-72 120.5a1 1 0 1 0 2 0 1 1 0 0 0-2 0z" transform="rotate(12.1 1708 5493.7) scale(4.4)"/>
    <path d="m-71 118 .7 1.8 1.8.7-1.8.7-.7 1.8-.7-1.8-1.8-.7 1.8-.7z" style="opacity:.2" transform="matrix(6 0 0 6 1215.8 -542.3)"/>
    <path d="M-69.7 120.5a1.3 1.3 0 1 1-2.6 0 1.3 1.3 0 0 1 2.6 0z" style="opacity:.3" transform="matrix(6 0 0 6 1215.8 -542.3)"/>
    <path d="M-72 120.5a1 1 0 1 0 2 0 1 1 0 0 0-2 0z" transform="matrix(6 0 0 6 1215.8 -542.3)"/>
    <path d="m-71 118 .7 1.8 1.8.7-1.8.7-.7 1.8-.7-1.8-1.8-.7 1.8-.7z" style="opacity:.2" transform="matrix(4.8 0 0 4.8 1152.4 -417.8)"/>
    <path d="M-69.7 120.5a1.3 1.3 0 1 1-2.6 0 1.3 1.3 0 0 1 2.6 0z" style="opacity:.3" transform="matrix(4.8 0 0 4.8 1152.4 -417.8)"/>
    <path d="M-72 120.5a1 1 0 1 0 2 0 1 1 0 0 0-2 0z" transform="matrix(4.8 0 0 4.8 1152.4 -417.8)"/>
    <path d="m-71 118 .7 1.8 1.8.7-1.8.7-.7 1.8-.7-1.8-1.8-.7 1.8-.7z" style="opacity:.2" transform="rotate(-40.8 -374 -1224.4) scale(5.2)"/>
    <path d="M-69.7 120.5a1.3 1.3 0 1 1-2.6 0 1.3 1.3 0 0 1 2.6 0z" style="opacity:.3" transform="rotate(-40.8 -374 -1224.4) scale(5.2)"/>
    <path d="M-72 120.5a1 1 0 1 0 2 0 1 1 0 0 0-2 0z" transform="rotate(-40.8 -374 -1224.4) scale(5.2)"/>
    <path d="m-71 118 .7 1.8 1.8.7-1.8.7-.7 1.8-.7-1.8-1.8-.7 1.8-.7z" style="opacity:.2" transform="rotate(32.1 1377.6 2773) scale(6.8)"/>
    <path d="M-69.7 120.5a1.3 1.3 0 1 1-2.6 0 1.3 1.3 0 0 1 2.6 0z" style="opacity:.3" transform="rotate(32.1 1377.6 2773) scale(6.8)"/>
    <path d="M-72 120.5a1 1 0 1 0 2 0 1 1 0 0 0-2 0z" transform="rotate(32.1 1377.6 2773) scale(6.8)"/>
    <path d="m-71 118 .7 1.8 1.8.7-1.8.7-.7 1.8-.7-1.8-1.8-.7 1.8-.7z" style="opacity:.2" transform="rotate(21 1448.8 3775) scale(5.5702)"/>
    <path d="M-69.7 120.5a1.3 1.3 0 1 1-2.6 0 1.3 1.3 0 0 1 2.6 0z" style="opacity:.3" transform="rotate(21 1448.8 3775) scale(5.5702)"/>
    <path d="M-72 120.5a1 1 0 1 0 2 0 1 1 0 0 0-2 0z" transform="rotate(21 1448.8 3775) scale(5.5702)"/>
    <path d="m-71 118 .7 1.8 1.8.7-1.8.7-.7 1.8-.7-1.8-1.8-.7 1.8-.7z" style="opacity:.2" transform="matrix(6.8 0 0 6.8 1283.6 -566.3)"/>
    <path d="M-69.7 120.5a1.3 1.3 0 1 1-2.6 0 1.3 1.3 0 0 1 2.6 0z" style="opacity:.3" transform="matrix(6.8 0 0 6.8 1283.6 -566.3)"/>
    <path d="M-72 120.5a1 1 0 1 0 2 0 1 1 0 0 0-2 0z" transform="matrix(6.8 0 0 6.8 1283.6 -566.3)"/>
  </g>
</svg>