<svg xmlns="http://www.w3.org/2000/svg" viewBox="0 0 1280 1280">
  <path d="M737 191.3a3.3 3.3 0 1 1-6.4 1.6 3.3 3.3 0 0 1 6.4-1.6m3.5-18.8a3.3 3.3 0 1 1-6.4 1.6 3.3 3.3 0 0 1 6.4-1.6m3.8-16.5a3.3 3.3 0 1 1-6.4 1.5 3.3 3.3 0 0 1 6.4-1.5M635.5 453a3.3 3.3 0 1 1-4.8-4.5 3.3 3.3 0 0 1 4.8 4.5m7.5 14.7a3.3 3.3 0 1 1-4.8-4.5 3.3 3.3 0 0 1 4.8 4.5m7 13.7a3.3 3.3 0 1 1-4.8-4.5 3.3 3.3 0 0 1 4.8 4.5m-202.2 11.8a3.3 3.3 0 1 1 1.7-6.3 3.3 3.3 0 0 1-1.7 6.3M803.7 252a3.2 3.2 0 1 1 6.4-.3 3.2 3.2 0 0 1-6.4.3m-15.2-4.5a3.2 3.2 0 1 1 6.4-.4 3.2 3.2 0 0 1-6.4.4m-15.4-4.6a3.2 3.2 0 1 1 6.4-.4 3.2 3.2 0 0 1-6.4.4m-14.7-4.4a3.2 3.2 0 1 1 6.4-.4 3.2 3.2 0 0 1-6.4.4m-14.7-4.5a3.2 3.2 0 1 1 6.4-.3 3.2 3.2 0 0 1-6.4.4M641.3 336.4a3.3 3.3 0 1 1 3.7 5.4 3.3 3.3 0 0 1-3.7-5.4m-4.4-17.1a3.3 3.3 0 1 1 3.7 5.5 3.3 3.3 0 0 1-3.7-5.5m-4.5-17.1a3.3 3.3 0 1 1 3.7 5.4 3.3 3.3 0 0 1-3.7-5.4m-4.2-16.2c1.5-1 3.6-.7 4.6.8a3.3 3.3 0 1 1-4.6-.8m-4.2-16a3.3 3.3 0 1 1 3.7 5.4 3.3 3.3 0 0 1-3.7-5.5m-41.4-52a3.2 3.2 0 1 1-6-2 3.2 3.2 0 0 1 6 2m12.6 10.1a3.2 3.2 0 1 1-6-2.2 3.2 3.2 0 0 1 6 2.1M518.9 166a3.2 3.2 0 1 1-6-2.1 3.2 3.2 0 0 1 6 2m12.3 9.9a3.2 3.2 0 1 1-6-2 3.2 3.2 0 0 1 6 2m12.6 10.1a3.2 3.2 0 1 1-6-2.1 3.2 3.2 0 0 1 6 2m12 9.7a3.2 3.2 0 1 1-6-2.1 3.2 3.2 0 0 1 6 2m12 9.6a3.2 3.2 0 1 1-6-2 3.2 3.2 0 0 1 6 2m122.6 279.2a3.2 3.2 0 1 1 4.4-4.7 3.2 3.2 0 0 1-4.4 4.7m-14.3 7.3a3.2 3.2 0 1 1 4.4-4.6 3.2 3.2 0 0 1-4.4 4.6M859 247.7a3.2 3.2 0 1 1-5 4 3.2 3.2 0 0 1 5-4m16.5-5.5a3.2 3.2 0 1 1-5 4 3.2 3.2 0 0 1 5-4M565.7 439.3a3.2 3.2 0 1 1 5.1-3.9 3.2 3.2 0 0 1-5.1 3.9m-15.2 4.7a3.2 3.2 0 1 1 5.2-4 3.2 3.2 0 0 1-5.2 4m-15.3 4.6a3.2 3.2 0 1 1 5.1-3.8 3.2 3.2 0 0 1-5.1 3.8m-14.8 4.6a3.2 3.2 0 1 1 5.2-3.9 3.2 3.2 0 0 1-5.2 3.9m-14.6 4.4a3.2 3.2 0 1 1 5.2-3.8 3.2 3.2 0 0 1-5.2 3.8m-15.1 4.7a3.2 3.2 0 1 1 5.1-3.8 3.2 3.2 0 0 1-5 3.8m89.2-27.6a3.2 3.2 0 1 1 5-3.8 3.2 3.2 0 0 1-5 3.8m57.4-40.6a3.2 3.2 0 1 1 .6-6.3 3.2 3.2 0 0 1-.6 6.3M693.1 229a3.2 3.2 0 1 1 5.5-3.4 3.2 3.2 0 0 1-5.5 3.4m-15 3.3a3.2 3.2 0 1 1 5.5-3.4 3.2 3.2 0 0 1-5.5 3.4m-14.9 3.2a3.2 3.2 0 1 1 5.4-3.4 3.2 3.2 0 0 1-5.4 3.4m-15.5 3.5a3.2 3.2 0 1 1 5.5-3.5 3.2 3.2 0 0 1-5.5 3.4M442.1 436a3.3 3.3 0 1 1-6-2.8 3.3 3.3 0 1 1 6 2.7" style="fill:#fff;fill-opacity:.25"/>
  <g style="fill:#7fa7ca">
    <path d="m-71 118 .7 1.8 1.8.7-1.8.7-.7 1.8-.7-1.8-1.8-.7 1.8-.7z" style="opacity:.2" transform="matrix(6.8 0 0 6.8 917.8 -315.7)"/>
    <path d="M-69.7 120.5a1.3 1.3 0 1 1-2.6 0 1.3 1.3 0 0 1 2.6 0z" style="opacity:.3" transform="matrix(6.8 0 0 6.8 917.8 -315.7)"/>
    <path d="M-72 120.5a1 1 0 1 0 2 0 1 1 0 0 0-2 0z" transform="matrix(6.8 0 0 6.8 917.8 -315.7)"/>
    <path d="m-71 118 .7 1.8 1.8.7-1.8.7-.7 1.8-.7-1.8-1.8-.7 1.8-.7z" style="opacity:.2" transform="matrix(9.6 -2.8585 2.8585 9.6 797.1 -896)"/>
    <path d="M-69.7 120.5a1.3 1.3 0 1 1-2.6 0 1.3 1.3 0 0 1 2.6 0z" style="opacity:.3" transform="matrix(9.6 -2.8585 2.8585 9.6 797.1 -896)"/>
    <path d="M-72 120.5a1 1 0 1 0 2 0 1 1 0 0 0-2 0z" transform="matrix(9.6 -2.8585 2.8585 9.6 797.1 -896)"/>
    <path d="m-71 118 .7 1.8 1.8.7-1.8.7-.7 1.8-.7-1.8-1.8-.7 1.8-.7z" style="opacity:.2" transform="matrix(6.8 0 0 6.8 909.6 -408.3)"/>
    <path d="M-69.7 120.5a1.3 1.3 0 1 1-2.6 0 1.3 1.3 0 0 1 2.6 0z" style="opacity:.3" transform="matrix(6.8 0 0 6.8 909.6 -408.3)"/>
    <path d="M-72 120.5a1 1 0 1 0 2 0 1 1 0 0 0-2 0z" transform="matrix(6.8 0 0 6.8 909.6 -408.3)"/>
    <path d="m-71 118 .7 1.8 1.8.7-1.8.7-.7 1.8-.7-1.8-1.8-.7 1.8-.7z" style="opacity:.2" transform="matrix(8.8 0 0 8.8 1242.9 -638)"/>
    <path d="M-69.7 120.5a1.3 1.3 0 1 1-2.6 0 1.3 1.3 0 0 1 2.6 0z" style="opacity:.3" transform="matrix(8.8 0 0 8.8 1242.9 -638)"/>
    <path d="M-72 120.5a1 1 0 1 0 2 0 1 1 0 0 0-2 0z" transform="matrix(8.8 0 0 8.8 1242.9 -638)"/>
    <path d="m-71 118 .7 1.8 1.8.7-1.8.7-.7 1.8-.7-1.8-1.8-.7 1.8-.7z" style="opacity:.2" transform="matrix(6.8 0 0 6.8 1134.3 -446.7)"/>
    <path d="M-69.7 120.5a1.3 1.3 0 1 1-2.6 0 1.3 1.3 0 0 1 2.6 0z" style="opacity:.3" transform="matrix(6.8 0 0 6.8 1134.3 -446.7)"/>
    <path d="M-72 120.5a1 1 0 1 0 2 0 1 1 0 0 0-2 0z" transform="matrix(6.8 0 0 6.8 1134.3 -446.7)"/>
    <path d="m-71 118 .7 1.8 1.8.7-1.8.7-.7 1.8-.7-1.8-1.8-.7 1.8-.7z" style="opacity:.2" transform="matrix(9.2 0 0 9.2 1270.4 -866.3)"/>
    <path d="M-69.7 120.5a1.3 1.3 0 1 1-2.6 0 1.3 1.3 0 0 1 2.6 0z" style="opacity:.3" transform="matrix(9.2 0 0 9.2 1270.4 -866.3)"/>
    <path d="M-72 120.5a1 1 0 1 0 2 0 1 1 0 0 0-2 0z" transform="matrix(9.2 0 0 9.2 1270.4 -866.3)"/>
    <path d="m-71 118 .7 1.8 1.8.7-1.8.7-.7 1.8-.7-1.8-1.8-.7 1.8-.7z" style="opacity:.2" transform="matrix(8.8 0 0 8.8 1125 -910.7)"/>
    <path d="M-69.7 120.5a1.3 1.3 0 1 1-2.6 0 1.3 1.3 0 0 1 2.6 0z" style="opacity:.3" transform="matrix(8.8 0 0 8.8 1125 -910.7)"/>
    <path d="M-72 120.5a1 1 0 1 0 2 0 1 1 0 0 0-2 0z" transform="matrix(8.8 0 0 8.8 1125 -910.7)"/>
    <path d="m-71 118 .7 1.8 1.8.7-1.8.7-.7 1.8-.7-1.8-1.8-.7 1.8-.7z" style="opacity:.2" transform="matrix(7.2 -.8878 .8878 7.2 1128.8 -709.5)"/>
    <path d="M-69.7 120.5a1.3 1.3 0 1 1-2.6 0 1.3 1.3 0 0 1 2.6 0z" style="opacity:.3" transform="matrix(7.2 -.8878 .8878 7.2 1128.8 -709.5)"/>
    <path d="M-72 120.5a1 1 0 1 0 2 0 1 1 0 0 0-2 0z" transform="matrix(7.2 -.8878 .8878 7.2 1128.8 -709.5)"/>
    <path d="m-71 118 .7 1.8 1.8.7-1.8.7-.7 1.8-.7-1.8-1.8-.7 1.8-.7z" style="opacity:.2" transform="matrix(9.6 0 0 9.6 1433.3 -1023.8)"/>
    <path d="M-69.7 120.5a1.3 1.3 0 1 1-2.6 0 1.3 1.3 0 0 1 2.6 0z" style="opacity:.3" transform="matrix(9.6 0 0 9.6 1433.3 -1023.8)"/>
    <path d="M-72 120.5a1 1 0 1 0 2 0 1 1 0 0 0-2 0z" transform="matrix(9.6 0 0 9.6 1433.3 -1023.8)"/>
    <path d="m-71 118 .7 1.8 1.8.7-1.8.7-.7 1.8-.7-1.8-1.8-.7 1.8-.7z" style="opacity:.2" transform="matrix(6.8 0 0 6.8 1313.5 -561.3)"/>
    <path d="M-69.7 120.5a1.3 1.3 0 1 1-2.6 0 1.3 1.3 0 0 1 2.6 0z" style="opacity:.3" transform="matrix(6.8 0 0 6.8 1313.5 -561.3)"/>
    <path d="M-72 120.5a1 1 0 1 0 2 0 1 1 0 0 0-2 0z" transform="matrix(6.8 0 0 6.8 1313.5 -561.3)"/>
    <path d="m-71 118 .7 1.8 1.8.7-1.8.7-.7 1.8-.7-1.8-1.8-.7 1.8-.7z" style="opacity:.2" transform="rotate(19.9 1480.9 4117.9) scale(5.5292)"/>
    <path d="M-69.7 120.5a1.3 1.3 0 1 1-2.6 0 1.3 1.3 0 0 1 2.6 0z" style="opacity:.3" transform="rotate(19.9 1480.9 4117.9) scale(5.5292)"/>
    <path d="M-72 120.5a1 1 0 1 0 2 0 1 1 0 0 0-2 0z" transform="rotate(19.9 1480.9 4117.9) scale(5.5292)"/>
    <path d="m-71 118 .7 1.8 1.8.7-1.8.7-.7 1.8-.7-1.8-1.8-.7 1.8-.7z" style="opacity:.2" transform="matrix(5.6 0 0 5.6 1054.7 -177.3)"/>
    <path d="M-69.7 120.5a1.3 1.3 0 1 1-2.6 0 1.3 1.3 0 0 1 2.6 0z" style="opacity:.3" transform="matrix(5.6 0 0 5.6 1054.7 -177.3)"/>
    <path d="M-72 120.5a1 1 0 1 0 2 0 1 1 0 0 0-2 0z" transform="matrix(5.6 0 0 5.6 1054.7 -177.3)"/>
    <path d="m-71 118 .7 1.8 1.8.7-1.8.7-.7 1.8-.7-1.8-1.8-.7 1.8-.7z" style="opacity:.2" transform="rotate(12.3 1739.3 6211.3) scale(6.8)"/>
    <path d="M-69.7 120.5a1.3 1.3 0 1 1-2.6 0 1.3 1.3 0 0 1 2.6 0z" style="opacity:.3" transform="rotate(12.3 1739.3 6211.3) scale(6.8)"/>
    <path d="M-72 120.5a1 1 0 1 0 2 0 1 1 0 0 0-2 0z" transform="rotate(12.3 1739.3 6211.3) scale(6.8)"/>
  </g>
</svg>