<svg xmlns="http://www.w3.org/2000/svg" viewBox="0 0 1280 1280">
  <path d="M581.2 324.5a3.7 3.7 0 1 1 2.3 7 3.7 3.7 0 0 1-2.3-7m-21.6-3.6a3.7 3.7 0 1 1 2.3 7 3.7 3.7 0 0 1-2.3-7m155.7 214.6a3.7 3.7 0 1 1-7.4-.5 3.7 3.7 0 0 1 7.4.5m18.1 8a3.7 3.7 0 1 1-7.4-.6 3.7 3.7 0 0 1 7.4.6M796 526a3.7 3.7 0 1 1-4 6.2 3.7 3.7 0 0 1 4-6.2m15.8-12a3.7 3.7 0 1 1-4 6.2 3.7 3.7 0 0 1 4-6.2M664 370.8a3.6 3.6 0 1 1 7 2 3.6 3.6 0 0 1-7-2m-14-10.1a3.6 3.6 0 1 1 7 2 3.6 3.6 0 0 1-7-2m-14-10.1a3.6 3.6 0 1 1 7 2 3.6 3.6 0 0 1-7-2M470.8 153.8a3.6 3.6 0 1 1-4.3 5.8 3.6 3.6 0 0 1 4.3-5.8m16.2-10.9a3.6 3.6 0 1 1-4.4 5.8 3.6 3.6 0 0 1 4.3-5.8m62.8 18.1a3.7 3.7 0 1 1-6.7-3.2 3.7 3.7 0 0 1 6.7 3.2m102.6 353.2a3.7 3.7 0 1 1-3 6.8 3.7 3.7 0 0 1 3-6.8m75.6-70.2a3.6 3.6 0 1 1-3.1-6.6 3.6 3.6 0 0 1 3 6.5M488 308.4a3.6 3.6 0 1 1-7 1.1 3.6 3.6 0 0 1 7-1.1m17.9 5.2a3.6 3.6 0 1 1-7.2 1.2 3.6 3.6 0 0 1 7.2-1.2m-49.7-47.7a3.7 3.7 0 1 1 3.6 6.4 3.7 3.7 0 0 1-3.6-6.4m-3.2-18a3.7 3.7 0 1 1 3.7 6.4 3.7 3.7 0 0 1-3.7-6.4m-3.4-19.5a3.7 3.7 0 1 1 3.7 6.4 3.7 3.7 0 0 1-3.7-6.4m-3.4-19.7a3.7 3.7 0 1 1 3.6 6.4 3.7 3.7 0 0 1-3.6-6.4M755 510.5a3.7 3.7 0 1 1-5.6 4.8 3.7 3.7 0 0 1 5.7-4.8m-4.5-18.5a3.7 3.7 0 1 1-5.7 4.8 3.7 3.7 0 0 1 5.7-4.8" style="fill:#fff;fill-opacity:.25"/>
  <g style="fill:#7fa7ca">
    <path d="m-71 118 .7 1.8 1.8.7-1.8.7-.7 1.8-.7-1.8-1.8-.7 1.8-.7z" style="opacity:.2" transform="matrix(9.6 0 0 9.6 1246.3 -980.2)"/>
    <path d="M-69.7 120.5a1.3 1.3 0 1 1-2.6 0 1.3 1.3 0 0 1 2.6 0z" style="opacity:.3" transform="matrix(9.6 0 0 9.6 1246.3 -980.2)"/>
    <path d="M-72 120.5a1 1 0 1 0 2 0 1 1 0 0 0-2 0z" transform="matrix(9.6 0 0 9.6 1246.3 -980.2)"/>
    <path d="m-71 118 .7 1.8 1.8.7-1.8.7-.7 1.8-.7-1.8-1.8-.7 1.8-.7z" style="opacity:.2" transform="matrix(6.8 0 0 6.8 1015.9 -673.3)"/>
    <path d="M-69.7 120.5a1.3 1.3 0 1 1-2.6 0 1.3 1.3 0 0 1 2.6 0z" style="opacity:.3" transform="matrix(6.8 0 0 6.8 1015.9 -673.3)"/>
    <path d="M-72 120.5a1 1 0 1 0 2 0 1 1 0 0 0-2 0z" transform="matrix(6.8 0 0 6.8 1015.9 -673.3)"/>
    <path d="m-71 118 .7 1.8 1.8.7-1.8.7-.7 1.8-.7-1.8-1.8-.7 1.8-.7z" style="opacity:.2" transform="rotate(17.2 1700.4 3274.2) scale(5.2)"/>
    <path d="M-69.7 120.5a1.3 1.3 0 1 1-2.6 0 1.3 1.3 0 0 1 2.6 0z" style="opacity:.3" transform="rotate(17.2 1700.4 3274.2) scale(5.2)"/>
    <path d="M-72 120.5a1 1 0 1 0 2 0 1 1 0 0 0-2 0z" transform="rotate(17.2 1700.4 3274.2) scale(5.2)"/>
    <path d="m-71 118 .7 1.8 1.8.7-1.8.7-.7 1.8-.7-1.8-1.8-.7 1.8-.7z" style="opacity:.2" transform="matrix(7.6 -2.817 2.817 7.6 649.2 -935.4)"/>
    <path d="M-69.7 120.5a1.3 1.3 0 1 1-2.6 0 1.3 1.3 0 0 1 2.6 0z" style="opacity:.3" transform="matrix(7.6 -2.817 2.817 7.6 649.2 -935.4)"/>
    <path d="M-72 120.5a1 1 0 1 0 2 0 1 1 0 0 0-2 0z" transform="matrix(7.6 -2.817 2.817 7.6 649.2 -935.4)"/>
    <path d="m-71 118 .7 1.8 1.8.7-1.8.7-.7 1.8-.7-1.8-1.8-.7 1.8-.7z" style="opacity:.2" transform="matrix(7.2 -2.6053 2.6053 7.2 659.2 -755)"/>
    <path d="M-69.7 120.5a1.3 1.3 0 1 1-2.6 0 1.3 1.3 0 0 1 2.6 0z" style="opacity:.3" transform="matrix(7.2 -2.6053 2.6053 7.2 659.2 -755)"/>
    <path d="M-72 120.5a1 1 0 1 0 2 0 1 1 0 0 0-2 0z" transform="matrix(7.2 -2.6053 2.6053 7.2 659.2 -755)"/>
    <path d="m-71 118 .7 1.8 1.8.7-1.8.7-.7 1.8-.7-1.8-1.8-.7 1.8-.7z" style="opacity:.2" transform="matrix(7.6 -4.5372 4.5372 7.6 523.7 -917.5)"/>
    <path d="M-69.7 120.5a1.3 1.3 0 1 1-2.6 0 1.3 1.3 0 0 1 2.6 0z" style="opacity:.3" transform="matrix(7.6 -4.5372 4.5372 7.6 523.7 -917.5)"/>
    <path d="M-72 120.5a1 1 0 1 0 2 0 1 1 0 0 0-2 0z" transform="matrix(7.6 -4.5372 4.5372 7.6 523.7 -917.5)"/>
    <path d="m-71 118 .7 1.8 1.8.7-1.8.7-.7 1.8-.7-1.8-1.8-.7 1.8-.7z" style="opacity:.2" transform="matrix(8.8 0 0 8.8 1238.3 -723.5)"/>
    <path d="M-69.7 120.5a1.3 1.3 0 1 1-2.6 0 1.3 1.3 0 0 1 2.6 0z" style="opacity:.3" transform="matrix(8.8 0 0 8.8 1238.3 -723.5)"/>
    <path d="M-72 120.5a1 1 0 1 0 2 0 1 1 0 0 0-2 0z" transform="matrix(8.8 0 0 8.8 1238.3 -723.5)"/>
    <path d="m-71 118 .7 1.8 1.8.7-1.8.7-.7 1.8-.7-1.8-1.8-.7 1.8-.7z" style="opacity:.2" transform="matrix(8.8 0 0 8.8 1314 -670.9)"/>
    <path d="M-69.7 120.5a1.3 1.3 0 1 1-2.6 0 1.3 1.3 0 0 1 2.6 0z" style="opacity:.3" transform="matrix(8.8 0 0 8.8 1314 -670.9)"/>
    <path d="M-72 120.5a1 1 0 1 0 2 0 1 1 0 0 0-2 0z" transform="matrix(8.8 0 0 8.8 1314 -670.9)"/>
    <path d="m-71 118 .7 1.8 1.8.7-1.8.7-.7 1.8-.7-1.8-1.8-.7 1.8-.7z" style="opacity:.2" transform="rotate(40.3 664.6 2250.5) scale(6.8)"/>
    <path d="M-69.7 120.5a1.3 1.3 0 1 1-2.6 0 1.3 1.3 0 0 1 2.6 0z" style="opacity:.3" transform="rotate(40.3 664.6 2250.5) scale(6.8)"/>
    <path d="M-72 120.5a1 1 0 1 0 2 0 1 1 0 0 0-2 0z" transform="rotate(40.3 664.6 2250.5) scale(6.8)"/>
    <path d="m-71 118 .7 1.8 1.8.7-1.8.7-.7 1.8-.7-1.8-1.8-.7 1.8-.7z" style="opacity:.2" transform="matrix(8 4.6532 -4.6532 8 1867 -167)"/>
    <path d="M-69.7 120.5a1.3 1.3 0 1 1-2.6 0 1.3 1.3 0 0 1 2.6 0z" style="opacity:.3" transform="matrix(8 4.6532 -4.6532 8 1867 -167)"/>
    <path d="M-72 120.5a1 1 0 1 0 2 0 1 1 0 0 0-2 0z" transform="matrix(8 4.6532 -4.6532 8 1867 -167)"/>
    <path d="m-71 118 .7 1.8 1.8.7-1.8.7-.7 1.8-.7-1.8-1.8-.7 1.8-.7z" style="opacity:.2" transform="matrix(9.6 5.0393 -5.0393 9.6 2051.5 -250.3)"/>
    <path d="M-69.7 120.5a1.3 1.3 0 1 1-2.6 0 1.3 1.3 0 0 1 2.6 0z" style="opacity:.3" transform="matrix(9.6 5.0393 -5.0393 9.6 2051.5 -250.3)"/>
    <path d="M-72 120.5a1 1 0 1 0 2 0 1 1 0 0 0-2 0z" transform="matrix(9.6 5.0393 -5.0393 9.6 2051.5 -250.3)"/>
    <path d="m-71 118 .7 1.8 1.8.7-1.8.7-.7 1.8-.7-1.8-1.8-.7 1.8-.7z" style="opacity:.2" transform="matrix(6.8 0 0 6.8 1313.3 -321)"/>
    <path d="M-69.7 120.5a1.3 1.3 0 1 1-2.6 0 1.3 1.3 0 0 1 2.6 0z" style="opacity:.3" transform="matrix(6.8 0 0 6.8 1313.3 -321)"/>
    <path d="M-72 120.5a1 1 0 1 0 2 0 1 1 0 0 0-2 0z" transform="matrix(6.8 0 0 6.8 1313.3 -321)"/>
    <path d="m-71 118 .7 1.8 1.8.7-1.8.7-.7 1.8-.7-1.8-1.8-.7 1.8-.7z" style="opacity:.2" transform="matrix(7.2 -3.2755 3.2755 7.2 798 -575.6)"/>
    <path d="M-69.7 120.5a1.3 1.3 0 1 1-2.6 0 1.3 1.3 0 0 1 2.6 0z" style="opacity:.3" transform="matrix(7.2 -3.2755 3.2755 7.2 798 -575.6)"/>
    <path d="M-72 120.5a1 1 0 1 0 2 0 1 1 0 0 0-2 0z" transform="matrix(7.2 -3.2755 3.2755 7.2 798 -575.6)"/>
    <path d="m-71 118 .7 1.8 1.8.7-1.8.7-.7 1.8-.7-1.8-1.8-.7 1.8-.7z" style="opacity:.2" transform="matrix(6.8 0 0 6.8 1105.3 -310.7)"/>
    <path d="M-69.7 120.5a1.3 1.3 0 1 1-2.6 0 1.3 1.3 0 0 1 2.6 0z" style="opacity:.3" transform="matrix(6.8 0 0 6.8 1105.3 -310.7)"/>
    <path d="M-72 120.5a1 1 0 1 0 2 0 1 1 0 0 0-2 0z" transform="matrix(6.8 0 0 6.8 1105.3 -310.7)"/>
  </g>
</svg>