<svg xmlns="http://www.w3.org/2000/svg" viewBox="0 0 1280 1280">
  <path d="M559.6 499.8a2.6 2.6 0 1 1-1.4 5 2.6 2.6 0 0 1 1.4-5m7.4-10.5a2.6 2.6 0 1 1-1.4 5 2.6 2.6 0 0 1 1.4-5m7.6-10.8a2.6 2.6 0 0 1-1.4 5 2.6 2.6 0 0 1 1.4-5m7.3-10.2a2.6 2.6 0 0 1-1.4 5 2.6 2.6 0 0 1 1.4-5m7.2-10.3a2.6 2.6 0 1 1-1.4 5.1 2.6 2.6 0 0 1 1.4-5m7.5-10.6a2.6 2.6 0 1 1-1.4 5 2.6 2.6 0 0 1 1.4-5m8.1-11.4a2.6 2.6 0 1 1-1.5 5 2.6 2.6 0 0 1 1.5-5m8.1-11.5a2.6 2.6 0 1 1-1.4 5 2.6 2.6 0 0 1 1.4-5m7.7-10.9a2.6 2.6 0 1 1-1.4 5 2.6 2.6 0 0 1 1.4-5m7.6-10.7a2.6 2.6 0 1 1-1.4 5 2.6 2.6 0 0 1 1.4-5m7.6-10.8a2.6 2.6 0 1 1-1.4 5 2.6 2.6 0 0 1 1.4-5m30.4-46.4a2.6 2.6 0 1 1-1.4 5 2.6 2.6 0 0 1 1.4-5m14.9-31.4a2.6 2.6 0 1 1-1.4 5 2.6 2.6 0 0 1 1.4-5m-40.7-2a2.6 2.6 0 1 1-1.4 5 2.6 2.6 0 0 1 1.4-5m29-7.7a2.6 2.6 0 1 1-1.4 5 2.6 2.6 0 0 1 1.4-5m-26.5 77.5a2.6 2.6 0 1 1-1.4 5 2.6 2.6 0 0 1 1.4-5m60-90.9a2.6 2.6 0 1 1-2.8 4.4 2.6 2.6 0 0 1 2.8-4.4m10.5-8.2a2.6 2.6 0 1 1-2.8 4.4 2.6 2.6 0 0 1 2.8-4.4m10.5-8.1a2.6 2.6 0 1 1-2.9 4.5 2.6 2.6 0 0 1 2.9-4.5M522.7 552.2a2.6 2.6 0 1 1-1.5 5 2.6 2.6 0 0 1 1.5-5m7.6-10.9a2.6 2.6 0 1 1-1.4 5 2.6 2.6 0 0 1 1.4-5m7.7-10.7a2.6 2.6 0 1 1-1.4 5 2.6 2.6 0 0 1 1.4-5m7.6-10.8a2.6 2.6 0 1 1-1.4 5 2.6 2.6 0 0 1 1.4-5m7-9.9a2.6 2.6 0 1 1-1.4 5 2.6 2.6 0 0 1 1.4-5m-66.2-99.5a2.6 2.6 0 1 1-3.1 4.1 2.6 2.6 0 0 1 3.1-4.1m10.8-7.1a2.6 2.6 0 1 1-3.1 4.2 2.6 2.6 0 0 1 3.1-4.2m11-7.2c1.2.9 1.4 2.5.5 3.7a2.6 2.6 0 1 1-.5-3.7m10.5-6.9a2.6 2.6 0 1 1-3.1 4.2 2.6 2.6 0 0 1 3.1-4.2m10.5-6.8a2.6 2.6 0 1 1-3.2 4.2 2.6 2.6 0 0 1 3.2-4.2m10.8-7.1a2.6 2.6 0 1 1-3.2 4.2 2.6 2.6 0 0 1 3.2-4.2m11.7-7.7c1.2 1 1.4 2.6.5 3.7a2.6 2.6 0 1 1-.5-3.7m11.9-7.6a2.6 2.6 0 1 1-3.2 4 2.6 2.6 0 0 1 3.2-4m11.1-7.4a2.6 2.6 0 1 1-3.2 4.2 2.6 2.6 0 0 1 3.2-4.2m11.1-7.2a2.6 2.6 0 1 1-3.2 4.2 2.6 2.6 0 0 1 3.2-4.2m11-7.2a2.6 2.6 0 1 1-3.2 4.2 2.6 2.6 0 0 1 3.2-4.2m10.2-6.7a2.6 2.6 0 1 1-3.2 4.2 2.6 2.6 0 0 1 3.2-4.2m-174.2 114a2.6 2.6 0 1 1-3.1 4.2 2.6 2.6 0 0 1 3.1-4.2m11.2-7.2a2.6 2.6 0 1 1-3.2 4.1 2.6 2.6 0 0 1 3.2-4.1m11-7.3a2.6 2.6 0 1 1-3.1 4.2 2.6 2.6 0 0 1 3.1-4.2m11-7.2a2.6 2.6 0 1 1-3.1 4.2 2.6 2.6 0 0 1 3.1-4.2m10.3-6.6a2.6 2.6 0 1 1-3.2 4.1 2.6 2.6 0 0 1 3.2-4.1m283-172.9a2.6 2.6 0 1 1-1.8 5 2.6 2.6 0 0 1 1.8-5m8.1-9.6a2.6 2.6 0 1 1-1.8 5 2.6 2.6 0 0 1 1.8-5m8-9.6a2.6 2.6 0 1 1-1.8 5 2.6 2.6 0 0 1 1.8-5m8.3-9.8a2.6 2.6 0 1 1-1.8 4.9 2.6 2.6 0 0 1 1.8-5m9.1-10.7a2.6 2.6 0 1 1-1.9 5 2.6 2.6 0 1 1 1.9-5m9-10.8c1.4.5 2.1 2 1.6 3.3a2.6 2.6 0 1 1-1.6-3.3m8.6-10.2c1.4.5 2 2 1.6 3.4-.6 1.3-2 2-3.4 1.5s-2-2-1.6-3.4c.5-1.3 2-2 3.4-1.5m8.5-10.1c1.4.5 2 2 1.5 3.4-.5 1.3-2 2-3.3 1.5-1.4-.5-2-2-1.6-3.4.5-1.3 2-2 3.4-1.5m8.5-10.1c1.3.5 2 2 1.5 3.4a2.6 2.6 0 1 1-5-1.8 2.8 2.8 0 0 1 3.5-1.6" style="fill:#fff;fill-opacity:.25;fill-rule:nonzero;stroke:none;stroke-width:.399999"/>
  <g style="fill:#7fa7ca">
    <path d="m-71 118 .7 1.8 1.8.7-1.8.7-.7 1.8-.7-1.8-1.8-.7 1.8-.7z" style="opacity:.2" transform="matrix(8.8 0 0 8.8 1036.7 -593.4)"/>
    <path d="M-69.7 120.5a1.3 1.3 0 1 1-2.6 0 1.3 1.3 0 0 1 2.6 0z" style="opacity:.3" transform="matrix(8.8 0 0 8.8 1036.7 -593.4)"/>
    <path d="M-72 120.5a1 1 0 1 0 2 0 1 1 0 0 0-2 0z" transform="matrix(8.8 0 0 8.8 1036.7 -593.4)"/>
    <path d="m-71 118 .7 1.8 1.8.7-1.8.7-.7 1.8-.7-1.8-1.8-.7 1.8-.7z" style="opacity:.2" transform="rotate(-8.8 -1586.6 -5748.8) scale(6.8)"/>
    <path d="M-69.7 120.5a1.3 1.3 0 1 1-2.6 0 1.3 1.3 0 0 1 2.6 0z" style="opacity:.3" transform="rotate(-8.8 -1586.6 -5748.8) scale(6.8)"/>
    <path d="M-72 120.5a1 1 0 1 0 2 0 1 1 0 0 0-2 0z" transform="rotate(-8.8 -1586.6 -5748.8) scale(6.8)"/>
    <path d="m-71 118 .7 1.8 1.8.7-1.8.7-.7 1.8-.7-1.8-1.8-.7 1.8-.7z" style="opacity:.2" transform="matrix(7.6 -1.0474 1.0474 7.6 1067.4 -624.3)"/>
    <path d="M-69.7 120.5a1.3 1.3 0 1 1-2.6 0 1.3 1.3 0 0 1 2.6 0z" style="opacity:.3" transform="matrix(7.6 -1.0474 1.0474 7.6 1067.4 -624.3)"/>
    <path d="M-72 120.5a1 1 0 1 0 2 0 1 1 0 0 0-2 0z" transform="matrix(7.6 -1.0474 1.0474 7.6 1067.4 -624.3)"/>
    <path d="m-71 118 .7 1.8 1.8.7-1.8.7-.7 1.8-.7-1.8-1.8-.7 1.8-.7z" style="opacity:.2" transform="matrix(6.4 0 0 6.4 1076.3 -449.2)"/>
    <path d="M-69.7 120.5a1.3 1.3 0 1 1-2.6 0 1.3 1.3 0 0 1 2.6 0z" style="opacity:.3" transform="matrix(6.4 0 0 6.4 1076.3 -449.2)"/>
    <path d="M-72 120.5a1 1 0 1 0 2 0 1 1 0 0 0-2 0z" transform="matrix(6.4 0 0 6.4 1076.3 -449.2)"/>
    <path d="m-71 118 .7 1.8 1.8.7-1.8.7-.7 1.8-.7-1.8-1.8-.7 1.8-.7z" style="opacity:.2" transform="rotate(24.8 765.3 2710.5) scale(4.8)"/>
    <path d="M-69.7 120.5a1.3 1.3 0 1 1-2.6 0 1.3 1.3 0 0 1 2.6 0z" style="opacity:.3" transform="rotate(24.8 765.3 2710.5) scale(4.8)"/>
    <path d="M-72 120.5a1 1 0 1 0 2 0 1 1 0 0 0-2 0z" transform="rotate(24.8 765.3 2710.5) scale(4.8)"/>
    <path d="m-71 118 .7 1.8 1.8.7-1.8.7-.7 1.8-.7-1.8-1.8-.7 1.8-.7z" style="opacity:.2" transform="matrix(5.2 -.9951 .9951 5.2 922.3 -366.2)"/>
    <path d="M-69.7 120.5a1.3 1.3 0 1 1-2.6 0 1.3 1.3 0 0 1 2.6 0z" style="opacity:.3" transform="matrix(5.2 -.9951 .9951 5.2 922.3 -366.2)"/>
    <path d="M-72 120.5a1 1 0 1 0 2 0 1 1 0 0 0-2 0z" transform="matrix(5.2 -.9951 .9951 5.2 922.3 -366.2)"/>
    <path d="m-71 118 .7 1.8 1.8.7-1.8.7-.7 1.8-.7-1.8-1.8-.7 1.8-.7z" style="opacity:.2" transform="matrix(6 0 0 6 1113.1 -422)"/>
    <path d="M-69.7 120.5a1.3 1.3 0 1 1-2.6 0 1.3 1.3 0 0 1 2.6 0z" style="opacity:.3" transform="matrix(6 0 0 6 1113.1 -422)"/>
    <path d="M-72 120.5a1 1 0 1 0 2 0 1 1 0 0 0-2 0z" transform="matrix(6 0 0 6 1113.1 -422)"/>
    <path d="m-71 118 .7 1.8 1.8.7-1.8.7-.7 1.8-.7-1.8-1.8-.7 1.8-.7z" style="opacity:.2" transform="matrix(8.4 0 0 8.4 1338.4 -749.3)"/>
    <path d="M-69.7 120.5a1.3 1.3 0 1 1-2.6 0 1.3 1.3 0 0 1 2.6 0z" style="opacity:.3" transform="matrix(8.4 0 0 8.4 1338.4 -749.3)"/>
    <path d="M-72 120.5a1 1 0 1 0 2 0 1 1 0 0 0-2 0z" transform="matrix(8.4 0 0 8.4 1338.4 -749.3)"/>
    <path d="m-71 118 .7 1.8 1.8.7-1.8.7-.7 1.8-.7-1.8-1.8-.7 1.8-.7z" style="opacity:.2" transform="matrix(6.8 0 0 6.8 1325.6 -670.4)"/>
    <path d="M-69.7 120.5a1.3 1.3 0 1 1-2.6 0 1.3 1.3 0 0 1 2.6 0z" style="opacity:.3" transform="matrix(6.8 0 0 6.8 1325.6 -670.4)"/>
    <path d="M-72 120.5a1 1 0 1 0 2 0 1 1 0 0 0-2 0z" transform="matrix(6.8 0 0 6.8 1325.6 -670.4)"/>
    <path d="m-71 118 .7 1.8 1.8.7-1.8.7-.7 1.8-.7-1.8-1.8-.7 1.8-.7z" style="opacity:.2" transform="rotate(-45.7 -218 -996.4) scale(4.4746)"/>
    <path d="M-69.7 120.5a1.3 1.3 0 1 1-2.6 0 1.3 1.3 0 0 1 2.6 0z" style="opacity:.3" transform="rotate(-45.7 -218 -996.4) scale(4.4746)"/>
    <path d="M-72 120.5a1 1 0 1 0 2 0 1 1 0 0 0-2 0z" transform="rotate(-45.7 -218 -996.4) scale(4.4746)"/>
  </g>
</svg>