<svg xmlns="http://www.w3.org/2000/svg" viewBox="0 0 1280 1280">
  <path d="M664.6 376a2.6 2.6 0 1 1-5.2.3 2.6 2.6 0 0 1 5.2-.3m12.4 3.6a2.6 2.6 0 1 1-5.2.3 2.6 2.6 0 0 1 5.2-.3m12.6 3.6a2.6 2.6 0 1 1-5.2.4 2.6 2.6 0 0 1 5.2-.4m12.1 3.5c.1 1.5-1 2.7-2.4 2.8a2.6 2.6 0 1 1 2.4-2.8m12 3.5a2.6 2.6 0 1 1-5.2.3 2.6 2.6 0 0 1 5.2-.3m12.4 3.6a2.6 2.6 0 1 1-5.2.3 2.6 2.6 0 0 1 5.2-.3M641 369.3a2.6 2.6 0 1 1-5.1.4 2.6 2.6 0 0 1 5.2-.4m11.7 3.4a2.6 2.6 0 1 1-5.2.3 2.6 2.6 0 0 1 5.2-.3m-57.1-133a2.6 2.6 0 1 1 5.2-.5 2.6 2.6 0 0 1-5.2.5m-12.6-3.1a2.6 2.6 0 1 1 5.2-.5 2.6 2.6 0 0 1-5.2.5m-12.7-3.2a2.6 2.6 0 1 1 5.2-.5 2.6 2.6 0 0 1-5.2.5m-12.2-3a2.6 2.6 0 1 1 5.2-.5 2.6 2.6 0 0 1-5.2.5m-12.2-3a2.6 2.6 0 1 1 5.3-.5 2.6 2.6 0 0 1-5.2.5m-12.6-3.1a2.6 2.6 0 1 1 5.2-.5 2.6 2.6 0 0 1-5.2.5M513 505.7a2.7 2.7 0 1 1-.6 5.4 2.7 2.7 0 0 1 .5-5.4m5.5-11.6a2.7 2.7 0 1 1-.5 5.4 2.7 2.7 0 0 1 .5-5.4m5.6-11.9a2.7 2.7 0 1 1-.5 5.3 2.7 2.7 0 0 1 .5-5.3m6.2-13.1a2.7 2.7 0 1 1-.6 5.4 2.7 2.7 0 0 1 .6-5.4m6.6-11.6a2.7 2.7 0 1 1-.5 5.4 2.7 2.7 0 0 1 .5-5.4m156.5-153.7c1.4-.6 3 0 3.6 1.4a2.7 2.7 0 1 1-3.6-1.4m-1.1-12.8a2.7 2.7 0 1 1 2.2 5 2.7 2.7 0 0 1-2.2-5m-1.2-12.7a2.7 2.7 0 1 1 2.3 4.9 2.7 2.7 0 0 1-2.3-5m-1.2-13.2a2.7 2.7 0 1 1 2.3 5 2.7 2.7 0 0 1-2.3-5m-1.3-14.3a2.7 2.7 0 1 1 2.3 5 2.7 2.7 0 0 1-2.3-5m-.1-13.3a2.7 2.7 0 1 1 2.2 4.8 2.7 2.7 0 0 1-2.2-4.8m-146 208.1a2.7 2.7 0 1 1-.5 5.4 2.7 2.7 0 0 1 .5-5.4m6.2-13a2.7 2.7 0 1 1-.6 5.4 2.7 2.7 0 0 1 .6-5.4m45.9-51.7a2.7 2.7 0 1 1 4.9 2.3 2.7 2.7 0 0 1-4.9-2.3m-11.9 10.1a2.7 2.7 0 1 1 4.8 2.3 2.7 2.7 0 0 1-4.8-2.3m-10.9 8.5a2.7 2.7 0 1 1 4.8 2.3 2.7 2.7 0 0 1-4.8-2.3m43.4-63.8a2.7 2.7 0 1 1 2 5 2.7 2.7 0 0 1-2-5m-.5-13.3c1.4-.5 3 .2 3.5 1.5a2.7 2.7 0 1 1-3.5-1.5m-.6-13.4a2.7 2.7 0 1 1 2 5 2.7 2.7 0 0 1-2-5m-.5-12.9a2.7 2.7 0 1 1 2 5 2.7 2.7 0 0 1-2-5m-.5-12.8a2.7 2.7 0 1 1 2 5 2.7 2.7 0 0 1-2-5m-.5-13.2a2.7 2.7 0 1 1 2 5 2.7 2.7 0 0 1-2-5m80.7-76a2.7 2.7 0 1 1 .8 5.4 2.7 2.7 0 0 1-.8-5.4m2.8-14a2.7 2.7 0 1 1 .8 5.3 2.7 2.7 0 0 1-.8-5.4m-79.8 79.6a2.6 2.6 0 1 1-4 3.3 2.6 2.6 0 0 1 4-3.3m47-27.7a2.6 2.6 0 1 1 4.8-2.1 2.6 2.6 0 0 1-4.8 2m-12.5 1a2.6 2.6 0 1 1 4.8-2.1 2.6 2.6 0 0 1-4.8 2.1m-12.9 1a2.6 2.6 0 1 1 4.8-2.2 2.6 2.6 0 0 1-4.8 2.2m94.8 188.5a2.7 2.7 0 1 1 .7-5.3 2.7 2.7 0 0 1-.7 5.3m-5.9 11.3a2.7 2.7 0 1 1 .8-5.3 2.7 2.7 0 0 1-.8 5.3m-6.1 11.8a2.7 2.7 0 1 1 .8-5.3 2.7 2.7 0 0 1-.8 5.3M714 458a2.7 2.7 0 1 1 .8-5.2 2.7 2.7 0 0 1-.8 5.3m-7 11.4a2.7 2.7 0 1 1 .7-5.4 2.7 2.7 0 0 1-.7 5.4m-6.1 11.7a2.7 2.7 0 1 1 .7-5.3 2.7 2.7 0 0 1-.7 5.3m-6.6 12.8a2.7 2.7 0 1 1 .7-5.3 2.7 2.7 0 0 1-.7 5.3m39.4-112.8a2.7 2.7 0 1 1-2.6 4.6 2.7 2.7 0 0 1 2.6-4.6m-9.1-12.8a2.7 2.7 0 1 1-2.7 4.7 2.7 2.7 0 0 1 2.7-4.7m-7.6-11.5c1.2.7 1.7 2.4 1 3.7a2.7 2.7 0 1 1-1-3.7m-8.7-12.7a2.7 2.7 0 1 1-2.7 4.7 2.7 2.7 0 0 1 2.7-4.7m-97.4 214.5a2.7 2.7 0 1 1-5.4-.5 2.7 2.7 0 0 1 5.4.5m7.6-13.7a2.7 2.7 0 1 1-5.3-.4 2.7 2.7 0 0 1 5.3.4m7.3-11.8a2.7 2.7 0 1 1-5.4-.4 2.7 2.7 0 0 1 5.4.4m7.8-13.2a2.7 2.7 0 0 1-5.4-.5 2.7 2.7 0 1 1 5.4.5m24.8-16.2a2.7 2.7 0 1 1 1.5 5.2 2.7 2.7 0 0 1-1.5-5.2m42.5-373.5a2.7 2.7 0 1 1 1.7 5.2 2.7 2.7 0 0 1-1.7-5.2m.4-14.3a2.7 2.7 0 1 1 1.7 5 2.7 2.7 0 0 1-1.7-5m.4-14.5a2.7 2.7 0 1 1 1.7 5 2.7 2.7 0 0 1-1.7-5m.4-13.7a2.7 2.7 0 1 1 1.7 5.1 2.7 2.7 0 0 1-1.7-5" style="fill:#fff;fill-opacity:.25"/>
  <g style="fill:#7fa7ca">
    <path d="m-71 118 .7 1.8 1.8.7-1.8.7-.7 1.8-.7-1.8-1.8-.7 1.8-.7z" style="opacity:.2" transform="matrix(9.6 -2.796 2.796 9.6 844.8 -821)"/>
    <path d="M-69.7 120.5a1.3 1.3 0 1 1-2.6 0 1.3 1.3 0 0 1 2.6 0z" style="opacity:.3" transform="matrix(9.6 -2.796 2.796 9.6 844.8 -821)"/>
    <path d="M-72 120.5a1 1 0 1 0 2 0 1 1 0 0 0-2 0z" transform="matrix(9.6 -2.796 2.796 9.6 844.8 -821)"/>
    <path d="m-71 118 .7 1.8 1.8.7-1.8.7-.7 1.8-.7-1.8-1.8-.7 1.8-.7z" style="opacity:.2" transform="matrix(6.8 0 0 6.8 1078.1 -243.6)"/>
    <path d="M-69.7 120.5a1.3 1.3 0 1 1-2.6 0 1.3 1.3 0 0 1 2.6 0z" style="opacity:.3" transform="matrix(6.8 0 0 6.8 1078.1 -243.6)"/>
    <path d="M-72 120.5a1 1 0 1 0 2 0 1 1 0 0 0-2 0z" transform="matrix(6.8 0 0 6.8 1078.1 -243.6)"/>
    <path d="m-71 118 .7 1.8 1.8.7-1.8.7-.7 1.8-.7-1.8-1.8-.7 1.8-.7z" style="opacity:.2" transform="matrix(2.3246 4.8 -4.8 2.3246 1383.3 564.2)"/>
    <path d="M-69.7 120.5a1.3 1.3 0 1 1-2.6 0 1.3 1.3 0 0 1 2.6 0z" style="opacity:.3" transform="matrix(2.3246 4.8 -4.8 2.3246 1383.3 564.2)"/>
    <path d="M-72 120.5a1 1 0 1 0 2 0 1 1 0 0 0-2 0z" transform="matrix(2.3246 4.8 -4.8 2.3246 1383.3 564.2)"/>
    <path d="m-71 118 .7 1.8 1.8.7-1.8.7-.7 1.8-.7-1.8-1.8-.7 1.8-.7z" style="opacity:.2" transform="rotate(-13.9 -1178.6 -4122.7) scale(6.8)"/>
    <path d="M-69.7 120.5a1.3 1.3 0 1 1-2.6 0 1.3 1.3 0 0 1 2.6 0z" style="opacity:.3" transform="rotate(-13.9 -1178.6 -4122.7) scale(6.8)"/>
    <path d="M-72 120.5a1 1 0 1 0 2 0 1 1 0 0 0-2 0z" transform="rotate(-13.9 -1178.6 -4122.7) scale(6.8)"/>
    <path d="m-71 118 .7 1.8 1.8.7-1.8.7-.7 1.8-.7-1.8-1.8-.7 1.8-.7z" style="opacity:.2" transform="matrix(6.8 0 0 6.8 1041.5 -403.4)"/>
    <path d="M-69.7 120.5a1.3 1.3 0 1 1-2.6 0 1.3 1.3 0 0 1 2.6 0z" style="opacity:.3" transform="matrix(6.8 0 0 6.8 1041.5 -403.4)"/>
    <path d="M-72 120.5a1 1 0 1 0 2 0 1 1 0 0 0-2 0z" transform="matrix(6.8 0 0 6.8 1041.5 -403.4)"/>
    <path d="m-71 118 .7 1.8 1.8.7-1.8.7-.7 1.8-.7-1.8-1.8-.7 1.8-.7z" style="opacity:.2" transform="matrix(8.8 -5.41 5.41 8.8 589 -1082.8)"/>
    <path d="M-69.7 120.5a1.3 1.3 0 1 1-2.6 0 1.3 1.3 0 0 1 2.6 0z" style="opacity:.3" transform="matrix(8.8 -5.41 5.41 8.8 589 -1082.8)"/>
    <path d="M-72 120.5a1 1 0 1 0 2 0 1 1 0 0 0-2 0z" transform="matrix(8.8 -5.41 5.41 8.8 589 -1082.8)"/>
    <path d="m-71 118 .7 1.8 1.8.7-1.8.7-.7 1.8-.7-1.8-1.8-.7 1.8-.7z" style="opacity:.2" transform="matrix(6.8 0 0 6.8 1224.4 -416.5)"/>
    <path d="M-69.7 120.5a1.3 1.3 0 1 1-2.6 0 1.3 1.3 0 0 1 2.6 0z" style="opacity:.3" transform="matrix(6.8 0 0 6.8 1224.4 -416.5)"/>
    <path d="M-72 120.5a1 1 0 1 0 2 0 1 1 0 0 0-2 0z" transform="matrix(6.8 0 0 6.8 1224.4 -416.5)"/>
    <path d="m-71 118 .7 1.8 1.8.7-1.8.7-.7 1.8-.7-1.8-1.8-.7 1.8-.7z" style="opacity:.2" transform="rotate(30.4 785 2507.8) scale(5.5642)"/>
    <path d="M-69.7 120.5a1.3 1.3 0 1 1-2.6 0 1.3 1.3 0 0 1 2.6 0z" style="opacity:.3" transform="rotate(30.4 785 2507.8) scale(5.5642)"/>
    <path d="M-72 120.5a1 1 0 1 0 2 0 1 1 0 0 0-2 0z" transform="rotate(30.4 785 2507.8) scale(5.5642)"/>
    <path d="m-71 118 .7 1.8 1.8.7-1.8.7-.7 1.8-.7-1.8-1.8-.7 1.8-.7z" style="opacity:.2" transform="rotate(32.8 1121 2505.2) scale(6.8)"/>
    <path d="M-69.7 120.5a1.3 1.3 0 1 1-2.6 0 1.3 1.3 0 0 1 2.6 0z" style="opacity:.3" transform="rotate(32.8 1121 2505.2) scale(6.8)"/>
    <path d="M-72 120.5a1 1 0 1 0 2 0 1 1 0 0 0-2 0z" transform="rotate(32.8 1121 2505.2) scale(6.8)"/>
    <path d="m-71 118 .7 1.8 1.8.7-1.8.7-.7 1.8-.7-1.8-1.8-.7 1.8-.7z" style="opacity:.2" transform="rotate(49.8 596.8 1574) scale(5.761)"/>
    <path d="M-69.7 120.5a1.3 1.3 0 1 1-2.6 0 1.3 1.3 0 0 1 2.6 0z" style="opacity:.3" transform="rotate(49.8 596.8 1574) scale(5.761)"/>
    <path d="M-72 120.5a1 1 0 1 0 2 0 1 1 0 0 0-2 0z" transform="rotate(49.8 596.8 1574) scale(5.761)"/>
    <path d="m-71 118 .7 1.8 1.8.7-1.8.7-.7 1.8-.7-1.8-1.8-.7 1.8-.7z" style="opacity:.2" transform="matrix(6.8 0 0 6.8 1000.3 -604.3)"/>
    <path d="M-69.7 120.5a1.3 1.3 0 1 1-2.6 0 1.3 1.3 0 0 1 2.6 0z" style="opacity:.3" transform="matrix(6.8 0 0 6.8 1000.3 -604.3)"/>
    <path d="M-72 120.5a1 1 0 1 0 2 0 1 1 0 0 0-2 0z" transform="matrix(6.8 0 0 6.8 1000.3 -604.3)"/>
    <path d="m-71 118 .7 1.8 1.8.7-1.8.7-.7 1.8-.7-1.8-1.8-.7 1.8-.7z" style="opacity:.2" transform="rotate(46.7 876.1 1859.7) scale(6.8)"/>
    <path d="M-69.7 120.5a1.3 1.3 0 1 1-2.6 0 1.3 1.3 0 0 1 2.6 0z" style="opacity:.3" transform="rotate(46.7 876.1 1859.7) scale(6.8)"/>
    <path d="M-72 120.5a1 1 0 1 0 2 0 1 1 0 0 0-2 0z" transform="rotate(46.7 876.1 1859.7) scale(6.8)"/>
    <path d="m-71 118 .7 1.8 1.8.7-1.8.7-.7 1.8-.7-1.8-1.8-.7 1.8-.7z" style="opacity:.2" transform="matrix(6.7245 7.6 -7.6 6.7245 2097.9 -206.4)"/>
    <path d="M-69.7 120.5a1.3 1.3 0 1 1-2.6 0 1.3 1.3 0 0 1 2.6 0z" style="opacity:.3" transform="matrix(6.7245 7.6 -7.6 6.7245 2097.9 -206.4)"/>
    <path d="M-72 120.5a1 1 0 1 0 2 0 1 1 0 0 0-2 0z" transform="matrix(6.7245 7.6 -7.6 6.7245 2097.9 -206.4)"/>
  </g>
</svg>